<svg width="343" height="280" viewBox="0 0 343 280" fill="none" xmlns="http://www.w3.org/2000/svg">
<g clip-path="url(#clip0_90_7687)">
<path d="M106.201 95.0205C85.7556 97.5429 72.4339 90.9137 47.3495 112.12C29.6294 127.102 29.3886 157.915 43.6229 176.003C51.545 186.067 59.9741 196.867 59.1248 210.607C58.2756 224.321 55.0814 235.514 65.4245 245.869C78.5814 259.039 96.2761 261.739 114.541 262.284C134.708 262.88 158.993 246.186 178.97 246.757C209.289 247.618 229.582 272.5 260.231 268.114C276.595 265.782 292.008 260.116 300.577 246.427C308.232 234.208 310.539 218.579 306.787 204.687C303.086 190.96 290.563 180.959 285.873 167.511C279.852 150.272 291.767 130.6 287.09 112.931C275.061 67.5151 207.21 57.2228 167.93 68.6559C145.494 75.171 129.79 92.1052 106.201 95.0205Z" fill="#E2E8F0"/>
<path d="M35.1559 189.248C34.9785 197.639 36.1193 206.068 38.5402 214.117C39.5923 217.616 40.9232 221.114 43.2428 223.928C45.03 226.095 48.2875 227.845 50.5437 226.146C51.3676 225.525 51.8493 224.574 52.2169 223.611C54.9674 216.551 52.7619 208.616 50.2776 201.467C48.6171 196.676 46.7538 191.809 43.3949 188.019C42.0513 186.498 40.2514 185.091 38.2234 185.192C36.1953 185.281 34.3447 187.677 35.4348 189.388L35.1559 189.248Z" fill="#E2E8F0"/>
<path d="M291.225 140.449C290.337 143.161 290.058 146.229 289.856 148.561C289.298 154.937 289.932 161.426 291.782 167.561C292.365 169.501 293.101 171.453 294.482 172.923C295.864 174.393 298.057 175.268 299.958 174.596C302.518 173.683 303.469 170.603 303.951 167.929C305.522 159.221 305.915 150.285 305.117 141.476C305.015 140.297 304.876 139.105 304.432 138.002C303.051 134.593 299.058 133.148 295.737 134.631C293.417 135.658 292.048 137.901 291.225 140.449Z" fill="#E2E8F0"/>
<path d="M222.491 147.611C228.669 136.027 234.827 124.443 241.006 112.86C242.246 110.539 243.253 107.179 241.08 105.706C239.978 104.964 238.452 105.133 237.296 105.801C236.141 106.469 235.283 107.518 234.456 108.578C225.734 119.632 217.923 131.428 211.161 143.785L222.491 147.611Z" fill="#4B5563"/>
<path d="M221.488 121.297C227.677 114.811 232.987 107.509 237.173 99.7195C238.392 97.4621 239.526 94.7596 238.477 92.7353C237.417 90.6792 234.439 90.3931 232.065 91.4317C229.691 92.4703 227.825 94.484 226.056 96.4447C218.245 105.146 210.858 114.207 203.937 123.566L221.488 121.297Z" fill="#4B5563"/>
<path d="M77.1966 262.199L105.223 194.508C110.883 184.313 115.112 177.286 116.786 165.755C119.171 149.254 114.465 129.372 110.395 113.262C110.056 111.927 110.279 110.496 111.105 109.394C112.642 107.349 114.963 108.038 116.701 109.055C125.042 113.941 127.755 125.938 129.949 135.36C132.302 145.449 132.291 150.844 139.604 157.839C144.998 133.346 151.432 110.295 158.649 86.4596C160.429 80.5882 162.899 74.0279 168.94 72.1202C169.745 71.8659 170.646 71.9189 171.377 72.3534C172.798 73.2224 172.596 74.9076 172.342 76.3277C168.293 98.1812 164.245 120.035 160.186 141.878C163.715 142.609 167.17 143.754 170.434 145.28C176.178 120.522 181.838 104.901 189.426 83.7889C190.687 80.2809 194.725 76.5185 197.841 79.486C198.859 80.461 199.367 81.8388 199.325 83.2378C198.678 101.562 188.642 127.729 183.608 151.119C189.055 152.857 186.692 153.843 192.129 155.592C201.731 133.102 209.128 114.11 220.68 94.6944C221.433 93.4332 222.715 92.5324 224.188 92.3946C228.491 92.0131 229.011 98.1918 227.887 102.177C222.217 122.26 213.304 139.61 204.624 160.181C210.326 163.106 208.111 161.972 213.813 164.918C221.072 153.186 227.071 139.875 234.32 128.132C235.984 125.429 238.74 120.851 242.089 121.805C244.039 122.356 245.035 124.56 244.346 126.457C238.263 143.457 231.702 160.276 224.644 176.894C213.686 202.711 199.505 237.092 187.01 262.199C166.937 302.536 164.245 307.093 164.245 307.093L77.1966 262.199Z" fill="#4B5563"/>
<path d="M139.615 157.85L154.357 174.16L141.904 147.781L139.615 157.85Z" fill="#1F2937"/>
<path d="M146.407 165.259C157.525 177.585 161.446 195.454 156.603 211.319C156.349 212.167 157.673 212.517 157.928 211.669C162.919 195.337 158.807 176.981 147.372 164.295C146.789 163.627 145.825 164.613 146.407 165.259Z" fill="#1F2937"/>
<path d="M150.011 227.827C148.76 230.117 147.51 232.406 146.27 234.684C145.856 235.458 147.043 236.136 147.457 235.363C148.707 233.073 149.958 230.784 151.198 228.506C151.622 227.743 150.424 227.054 150.011 227.827Z" fill="#1F2937"/>
<path d="M154.314 230.563C153.01 233.032 151.696 235.491 150.392 237.96C149.979 238.734 151.177 239.423 151.579 238.639C152.883 236.169 154.197 233.711 155.501 231.241C155.914 230.468 154.727 229.789 154.314 230.563Z" fill="#1F2937"/>
<path d="M116.097 163.202C117.168 168.703 116.966 174.267 115.546 179.693C115.324 180.552 116.648 180.901 116.871 180.043C118.344 174.394 118.524 168.597 117.411 162.863C117.263 161.994 115.938 162.344 116.097 163.202Z" fill="#1F2937"/>
<path d="M110.989 109.889C113.267 112.698 113.628 116.619 111.974 119.82C111.572 120.604 112.759 121.282 113.161 120.498C115.133 116.704 114.635 112.221 111.953 108.925C111.402 108.225 110.438 109.211 110.989 109.889Z" fill="#1F2937"/>
<path d="M166.344 75.3753C168.22 73.0966 171.611 74.0505 172.035 76.9756C172.162 77.8446 173.487 77.4949 173.36 76.6258C172.787 72.7045 167.88 71.3585 165.369 74.4002C164.818 75.0785 165.782 76.0429 166.344 75.3753Z" fill="#1F2937"/>
<path d="M192.107 81.2353C194.174 79.5713 197.438 80.3132 198.721 82.5918C199.155 83.3655 200.342 82.6872 199.908 81.9135C198.17 78.7977 193.877 78.0664 191.132 80.2602C190.454 80.8113 191.429 81.7864 192.107 81.2353Z" fill="#1F2937"/>
<path d="M221.011 95.342C223.089 93.3071 226.31 94.367 226.904 97.1861C227.084 98.0445 228.409 97.6948 228.229 96.8364C227.423 92.9786 222.834 91.6538 220.047 94.3776C219.411 94.9923 220.386 95.9673 221.011 95.342Z" fill="#1F2937"/>
<path d="M240.023 123.896C241.814 122.719 244.114 124.404 243.181 126.482C242.821 127.287 244.008 127.965 244.368 127.16C245.799 123.97 242.387 120.727 239.345 122.709C238.592 123.186 239.271 124.373 240.023 123.896Z" fill="#1F2937"/>
<path d="M119.678 56.7015C114.967 55.2839 110.268 53.8664 105.557 52.4489C103.275 51.7604 102.29 55.3379 104.571 56.0265C109.283 57.444 113.981 58.8615 118.693 60.2791C120.988 60.9676 121.96 57.39 119.678 56.7015Z" fill="#94A3B8"/>
<path d="M128.537 39.0842C124.082 35.6686 119.613 32.2396 115.158 28.824C113.268 27.3795 111.419 30.5925 113.282 32.0236C117.737 35.4391 122.205 38.8682 126.66 42.2838C128.55 43.7418 130.4 40.5288 128.537 39.0842Z" fill="#94A3B8"/>
<path d="M140.996 30.834C137.661 25.5824 134.583 20.1823 131.748 14.6607C130.655 12.5411 127.455 14.4042 128.549 16.5372C131.384 22.0723 134.475 27.459 137.796 32.7106C139.065 34.7086 142.265 32.8456 140.996 30.834Z" fill="#94A3B8"/>
<path d="M141.577 215.277L216.599 215.25C222.687 215.25 227.682 210.255 227.669 204.166L227.615 49.7763C227.615 43.6877 222.62 38.6926 216.531 38.7061L141.51 38.7331C135.421 38.7331 130.426 43.7282 130.439 49.8168L130.507 204.193C130.493 210.295 135.489 215.277 141.577 215.277Z" fill="#1F2937"/>
<path d="M221.592 52.7613C221.592 48.4142 218.028 44.8501 213.681 44.8501L144.356 44.8771C140.009 44.8771 136.445 48.4412 136.445 52.7883V60.308H221.592V52.7613Z" fill="#CBD5E1"/>
<path d="M221.646 193.191H136.499V169.444L136.486 149.653L136.459 102.348V82.4616L136.445 60.3076H221.592L221.605 84.5002V105.804L221.619 146.129L221.632 167.554L221.646 193.191Z" fill="white"/>
<path d="M203.432 151.283C217.404 137.312 217.404 114.66 203.432 100.689C189.461 86.7175 166.809 86.7175 152.838 100.689C138.867 114.66 138.867 137.312 152.838 151.283C166.809 165.254 189.461 165.254 203.432 151.283Z" fill="#63CBE8"/>
<g clip-path="url(#clip1_90_7687)">
<path d="M180.447 105.038C189.867 105.288 198.721 109.335 205.662 117.501C207.043 119.113 206.866 121.19 205.344 122.515C203.892 123.769 201.802 123.589 200.456 122.049C196.809 117.788 192.417 114.672 187.07 113.203C176.127 110.195 166.671 112.917 158.738 121.082C158.455 121.405 158.172 121.727 157.888 122.049C156.578 123.554 154.453 123.733 153.037 122.515C151.514 121.226 151.372 119.077 152.683 117.501C155.799 113.812 159.482 110.875 163.767 108.691C168.654 106.255 173.825 105.073 180.447 105.038Z" fill="white"/>
<path d="M195.924 128.855C195.924 130.287 195.074 131.577 193.728 132.114C192.382 132.651 190.895 132.293 189.903 131.147C188.416 129.463 186.716 128.067 184.662 127.207C178.996 124.772 172.763 126.276 168.584 131.075C167.592 132.221 166.353 132.615 164.901 132.185C163.52 131.756 162.705 130.753 162.493 129.32C162.351 128.317 162.634 127.386 163.307 126.598C170.496 117.824 183.741 116.57 192.382 123.912C193.374 124.736 194.295 125.667 195.109 126.67C195.605 127.243 195.782 128.067 196.136 128.783C196.03 128.783 195.994 128.819 195.924 128.855Z" fill="white"/>
<path d="M179.209 147.119C175.349 147.119 172.268 144.039 172.268 140.136C172.268 136.304 175.349 133.188 179.173 133.152C182.998 133.152 186.115 136.268 186.079 140.171C186.079 144.039 183.034 147.119 179.209 147.119Z" fill="white"/>
</g>
<path d="M136.504 193.19V200.872C136.504 205.219 140.068 208.783 144.415 208.783L213.739 208.756C218.086 208.756 221.65 205.192 221.65 200.845V193.203H136.504V193.19Z" fill="#E2E8F0"/>
<path opacity="0.69" d="M221.623 146.128C221.421 146.56 221.218 146.979 220.989 147.411C219.801 149.746 218.437 151.987 216.925 154.134C216.763 154.35 216.601 154.566 216.452 154.782C216.425 154.822 216.398 154.863 216.385 154.89C216.02 155.362 215.642 155.835 215.251 156.294C214.441 157.252 213.604 158.197 212.726 159.102C211.849 160.006 210.958 160.884 210.013 161.734C209.554 162.153 209.068 162.571 208.595 162.976C208.42 163.125 207.326 163.975 207.232 164.07C205.288 165.487 203.29 166.81 201.184 167.985C200.077 168.606 198.943 169.173 197.795 169.713C197.566 169.821 196.728 170.186 196.499 170.294C196.418 170.321 196.323 170.361 196.31 170.361C195.878 170.523 195.459 170.685 195.027 170.847C192.503 171.765 189.911 172.494 187.292 173.021C186.644 173.142 186.009 173.264 185.361 173.372C185.105 173.412 184.146 173.534 184.065 173.561C182.783 173.696 181.5 173.79 180.204 173.844C177.41 173.952 174.655 173.79 171.874 173.52C171.861 173.52 171.739 173.507 171.604 173.493C171.388 173.466 171.024 173.412 170.943 173.385C170.295 173.277 169.647 173.169 169.012 173.034C167.649 172.764 166.299 172.427 164.949 172.049C163.801 171.725 162.654 171.36 161.533 170.955C160.953 170.753 160.386 170.523 159.819 170.294C159.724 170.24 158.631 169.781 158.442 169.686C156.147 168.62 153.919 167.391 151.799 166C151.273 165.649 150.746 165.298 150.233 164.934C150.044 164.799 149.41 164.34 149.248 164.232C148.276 163.476 147.331 162.679 146.413 161.869C144.469 160.128 142.66 158.251 140.986 156.253C140.756 155.983 140.527 155.7 140.297 155.416C140.284 155.403 140.23 155.335 140.176 155.268C140.054 155.092 139.46 154.269 139.325 154.093C138.542 152.986 137.8 151.852 137.111 150.691C136.909 150.34 136.706 150.003 136.504 149.652L136.517 169.443C150.598 182.795 170.7 188.843 190.248 184.995C202.304 182.633 213.266 176.315 221.664 167.553L221.623 146.128ZM139.19 98.0534C139.339 97.8374 139.892 97.0948 139.919 97.0408C140.284 96.5818 140.648 96.1228 141.026 95.6773C142.7 93.6793 144.509 91.7892 146.453 90.0612C146.926 89.6427 147.398 89.2242 147.884 88.8326C148.046 88.6976 148.748 88.1441 148.978 87.9551C149.072 87.8876 149.153 87.8201 149.18 87.8066C149.477 87.6041 149.761 87.3881 150.058 87.1721C150.652 86.7536 151.246 86.3486 151.853 85.9571C154.054 84.526 156.363 83.257 158.752 82.15C158.955 82.0555 159.832 81.691 159.927 81.637C159.913 81.637 159.913 81.637 159.9 81.637C160.359 81.4615 160.804 81.2725 161.263 81.1105C162.559 80.638 163.869 80.2194 165.205 79.8414C166.461 79.4904 167.73 79.1934 168.999 78.9369C169.552 78.8289 170.106 78.7209 170.659 78.6264C170.902 78.5859 172.185 78.4104 172.198 78.4104C174.831 78.1404 177.491 78.0189 180.15 78.1134C181.487 78.1674 182.823 78.2619 184.146 78.4104C184.241 78.4239 184.632 78.4644 184.848 78.4914C184.956 78.5049 185.064 78.5184 185.078 78.5319C185.82 78.6534 186.563 78.7884 187.292 78.9369C189.924 79.4634 192.503 80.1924 195.027 81.1105C195.513 81.286 195.986 81.475 196.472 81.664C196.593 81.718 197.403 82.069 197.62 82.1635C198.848 82.7305 200.077 83.3515 201.265 84.013C202.372 84.6205 203.452 85.2821 204.518 85.9706C205.045 86.3216 205.571 86.6726 206.084 87.0371C206.3 87.1991 206.516 87.3476 206.746 87.5096C206.84 87.5771 206.908 87.6176 206.962 87.6581C206.975 87.6716 206.989 87.6716 207.002 87.6851C209.054 89.2917 210.998 91.0332 212.807 92.9097C213.685 93.8143 214.522 94.7593 215.332 95.7178C215.602 96.0418 215.858 96.3658 216.115 96.6898C216.155 96.7573 217.006 97.9049 217.141 98.0939C218.653 100.24 219.99 102.495 221.178 104.831C221.34 105.141 221.488 105.465 221.637 105.789L221.623 84.499C215.318 77.8569 207.475 72.5918 198.538 69.2842C177.369 61.454 152.609 66.9621 136.477 82.447L136.49 102.346C136.706 101.968 136.922 101.604 137.152 101.226C137.773 100.159 138.461 99.0929 139.19 98.0534Z" fill="#6890CB"/>
<path d="M215.962 53.5584H204.068C202.799 53.5584 201.773 52.5188 201.773 51.2633C201.773 49.9943 202.813 48.9683 204.068 48.9683H215.962C217.231 48.9683 218.257 50.0078 218.257 51.2633C218.257 52.5188 217.218 53.5584 215.962 53.5584Z" fill="white"/>
<path d="M141.295 52.9242C143.145 52.9242 143.158 50.0352 141.295 50.0352C139.446 50.0352 139.446 52.9242 141.295 52.9242Z" fill="white"/>
<path d="M148.028 52.5038C149.878 52.5038 149.891 49.6147 148.028 49.6147C146.165 49.6147 146.165 52.5038 148.028 52.5038Z" fill="white"/>
<path d="M155.592 52.0849C157.442 52.0849 157.455 49.1958 155.592 49.1958C153.743 49.1958 153.743 52.0849 155.592 52.0849Z" fill="white"/>
<path d="M166.106 200.197C174.652 200.197 183.211 200.197 191.757 200.197C193.606 200.197 193.62 197.308 191.757 197.308C183.211 197.308 174.652 197.308 166.106 197.308C164.256 197.308 164.256 200.197 166.106 200.197Z" fill="white"/>
<path d="M142.296 221.046C153.011 196.744 148.072 166.349 130.246 146.678C120.422 162.671 122.35 182.829 121.057 201.566C120.739 206.23 120.188 210.956 121.036 215.556C121.873 220.166 124.364 224.734 128.561 226.79C132.758 228.846 138.714 227.426 140.548 223.113L142.296 221.046Z" fill="#4B5563"/>
<path d="M237.289 106.492C239.387 106.047 241.571 107.637 241.751 109.788C241.825 110.668 243.203 110.668 243.128 109.788C242.874 106.736 239.949 104.531 236.939 105.167C236.07 105.358 236.43 106.672 237.289 106.492Z" fill="#1F2937"/>
<path d="M234.87 92.6687C236.916 91.8102 238.527 93.8663 237.774 95.7422C237.446 96.5582 238.781 96.8974 239.099 96.0919C240.36 92.9442 237.16 90.2311 234.182 91.4711C233.365 91.8208 234.065 93.0078 234.87 92.6687Z" fill="#1F2937"/>
</g>
<defs>
<clipPath id="clip0_90_7687">
<rect width="343" height="280" fill="white"/>
</clipPath>
<clipPath id="clip1_90_7687">
<rect width="54.7858" height="42.0819" fill="white" transform="translate(151.797 105.038)"/>
</clipPath>
</defs>
</svg>
