<svg xmlns="http://www.w3.org/2000/svg" width="343" height="229" fill="none" viewBox="0 0 343 229"><g clip-path="url(#a)"><path fill="#E2E8F0" d="M149.941 219.598c-1.739-2.288-3.411-4.671-5.616-6.63-6.713-5.946-15.631-4.809-24.111-4.233-23.89 1.616-48.727 11.192-72.413 3.205-7.055-2.383-14.37-7.548-14.59-14.904-.41-13.604 21.398-17.111 25.823-30.001 1.069-3.124.822-6.932-1.575-9.22-1.562-1.48-3.74-2.096-5.809-2.685-11.302-3.206-22.549-7.315-32.028-14.192-9.042-6.535-16.48-16.001-18.919-26.947-1.342-6.041-.85-12.616 2.233-17.987 3.329-5.808 9.384-9.726 15.836-11.699 17.33-5.301 43.673 6.7 57.523-7.548 6.754-6.945 2.822-19-1.904-27.425-12.96-23.07 2.644-39.96 25.37-47.495 14.755-4.89 31.166.575 43.208 9.438 8.137 6 25.137 7.919 34.85 10.85 10.521 3.178 25.302 1.617 35.166-3.178 19.685-9.576 22.658-9.562 44.714-14.754 26.097-6.137 64.879-4.233 78.003 25.576 7.438 16.878-7.507 40.59-22.179 59.88-5.014 6.588-10.686 19.26-8.055 27.096 3.972 11.836 20.905 15.535 26.59 27.234 11.74 24.11-2.302 48.426-23.316 61.468-10.192 6.315-22.494 10.822-34.604 11-15.165.233-28.549-8.192-43.331-10.219-11.973-1.644-24.507 1.205-34.549 7.849-6.644 4.398-12.329 10.425-19.822 13.165-5.768 2.096-12.316 1.904-18.015-.315-3.836-1.534-6.219-4.356-8.48-7.329"/><path fill="#E2E8F0" d="M50.705 58.714c2.493-7.22 1.877-15.987.164-21.137-.85-2.576-2.15-4.973-4.288-6.234-3.657-2.137-8.589.384-11.767 4.644-3 4.014-4.37 8.905-5.33 13.576-2.054 10.014-.314 25.371 12.399 19.604 4.493-2.041 7.274-5.946 8.822-10.453M325.92 85.278c-3.631 2.754-6.686 6.713-8.905 10.055-2.548 3.836-4.589 8.247-4.384 12.85s3.206 9.302 7.699 10.261c5.124 1.096 9.96-2.713 13.289-6.754 4.712-5.685 8.287-12.603 8.616-19.973.233-5.356-3.26-10.562-9.206-9.672-2.548.384-4.931 1.59-7.109 3.233"/><path fill="#CBD5E1" d="M271.836 111.561c-1.043-2.574.787-5.104 3.461-5.548 2.763-.466 5.004 1.643 5.326 4.328.177 1.486-.355 2.895-1.321 4.016-1.153 1.342-2.662 1.731-4.238 2.352-1.675.666-3.206 1.609-3.905 3.362-.821 2.075-.389 4.693-.2 6.857.277 3.228 5.359 3.295 5.082.033-.123-1.387-.444-3.062-.222-4.449.144-.921.687-.966 1.653-1.298 2.485-.855 4.56-2.064 6.169-4.194 2.696-3.584 2.762-8.543.111-12.194-2.796-3.85-7.778-4.948-12.039-2.907-3.96 1.898-6.479 6.724-4.759 10.951.51 1.265 1.664 2.186 3.106 1.798 1.176-.311 2.297-1.82 1.776-3.107m2.731 25.462c3.273 0 3.306-5.082.033-5.082s-3.306 5.082-.033 5.082"/><path fill="#FDA4AF" d="M130.327 85.942c2.264-8.954 12.138-8.144 19.516-7.412 4.893.489 9.642-4.582 9.464-9.32-.21-5.48-7.555-3.24-12.803-3.76-3.773-.378-.366-6.08-4.15-6.08-7.245-.012-11.982 1.508-15.977 3.294-4.049 1.82-7.189 5.27-9.785 8.777-5.259 7.067-7.257 17.186-4.372 25.618 2.23 6.524 6.613 12.315 12.471 15.855 2.729-5.747 5.303-11.572 7.999-17.33-2.374-2.353-3.262-6.103-2.363-9.642m1.11 8.232c-.167-.177-.278-.31-.267-.31.023-.011.134.133.267.31"/><path fill="#FDA4AF" d="m142.321 63.218.776-4.76c.178-1.298 1.687-2.773 3.24-2.307 1.531.454 2.031 2.263 1.798 3.905l-.256 2.818.555-.266 7.9-5.459c1.853-1.276 3.994-1.42 4.76-.31l.11.155c.711 1.02.001 2.773-1.575 4.05 1.742-1.021 3.628-1.077 4.338-.045l.111.155c.51.744.289 1.853-.477 2.896 1.065-.222 2.053.022 2.563.743.932 1.354.089 3.55-1.875 4.916l-8.621 5.969c-3.994 2.762-9.464 1.775-12.227-2.22a8.76 8.76 0 0 1-1.52-5.824z"/><path fill="#1F2937" d="M142.353 66.17c.367-2.23.722-4.472 1.088-6.702.066-.4.088-.876.233-1.265.488-1.309 2.174-2.252 3.317-1.054.477.5.644 1.354.677 1.997.044 1.22-.2 2.508-.311 3.717-.033.41.455.588.766.433 2.13-1.032 4.049-2.685 5.991-4.028.81-.566 1.62-1.165 2.452-1.697.976-.622 2.63-1.51 3.772-.777 1.598 1.02-.177 3.062-1.076 3.85-.444.388.122 1.054.61.799 1.964-1.032 5.337-.932 3.285 2.308-.267.41.166.798.576.743 1.62-.233 2.63 1.01 2.086 2.519-.333.92-1.032 1.642-1.797 2.219-.189.144-.388.266-.588.399-1.287.888-2.574 1.786-3.861 2.674-2.297 1.598-4.605 3.184-6.901 4.782-.533.366-.022 1.254.51.876 3.195-2.207 6.38-4.426 9.575-6.634 1.365-.944 2.885-1.82 3.717-3.307 1.42-2.552-.111-4.926-3.007-4.515.189.244.377.499.577.743.766-1.21 1.276-2.84.044-3.939-1.32-1.187-3.361-.466-4.704.244.2.267.411.533.61.8 1.365-1.2 3.007-3.64 1.199-5.215-1.576-1.365-3.961-.245-5.404.732-2.673 1.808-5.259 4.116-8.154 5.525.255.144.51.289.765.444.155-1.742.688-3.895-.089-5.548-1.009-2.163-3.683-2.263-5.07-.388-.943 1.276-.932 3.34-1.176 4.849l-.666 4.094c-.122.688.855.965.954.321"/><path fill="#1F2937" d="M147.865 62.11c-1.088.754-2.164 1.497-3.251 2.251-.533.367-.022 1.254.51.877 1.088-.755 2.164-1.498 3.251-2.252.533-.366.022-1.254-.51-.877m12.732-2.453a3973 3973 0 0 0-8.577 5.936c-.532.366-.022 1.254.511.876a4278 4278 0 0 0 8.576-5.936c.544-.366.033-1.242-.51-.876m2.78 4.004a3522 3522 0 0 0-8.288 5.736c-.533.366-.023 1.254.51.876 2.763-1.908 5.525-3.816 8.288-5.736.532-.366.022-1.253-.51-.876"/><path fill="#1F2937" d="M166.418 67.258c-2.596-3.762-5.203-7.512-7.8-11.273-.366-.532-1.253-.022-.876.51 2.596 3.762 5.203 7.512 7.8 11.273.366.544 1.253.033.876-.51m-18.717-9.418a20 20 0 0 1-4.294.221c-.655-.033-.655.977 0 1.01a21 21 0 0 0 4.571-.267c.644-.088.366-1.065-.277-.965"/><path fill="#1F2937" d="M161.274 83.013c-2.296.111-4.016-.943-4.537-3.018-.522-2.075.255-4.271 1.342-6.113s2.496-3.495 3.439-5.426c2.175-4.482 1.964-10.606 6.18-13.247.644-.4 1.587-.699 2.33-.4 1.121.467.733 1.343 1.243 2.23.444.777 1.642.81 2.374.3.744-.51 1.143-1.375 1.531-2.185a45.6 45.6 0 0 1 5.903-9.198c1.342-1.62 3.184-3.284 5.248-2.907 1.032.188 1.021 1.941 2.075 1.953 2.618.01 4.915-5.16 7.5-4.816 1.22.156 2.097 1.365 2.23 2.586s-.322 2.43-.888 3.517c-1.453 2.785-7.688 6.923-9.275 9.63-2.496 4.238 2.774 2.585 3.14 5.703.344 2.951-4.127 4.815-6.202 5.925-3.373 1.808-7.012 3.683-9.209 6.934-.4.588-.755 1.298-.577 1.986.133.555.588.976.777 1.52.588 1.709-1.609 2.985-3.362 3.395a65.6 65.6 0 0 1-11.262 1.631"/><path fill="#63CBE8" d="M205.307 185.529c-3.462-9.386-6.924-18.773-10.385-28.148-5.193-14.08-10.385-28.148-15.578-42.228-1.719-4.66-3.14-9.752-6.379-13.613-4.438-5.281-12.271-5.714-17.619-1.609-2.896 2.219-4.838 5.359-6.025 8.754-.344.987-.665 1.997-.998 2.996l-13.115 39.343c-3.761 11.294-7.655 22.545-11.294 33.873-.067.199-.134.388-.2.588a7 7 0 0 0-.155.543h19.849c2.507-7.522 5.015-15.045 7.522-22.556 4.15-12.437 8.288-24.875 12.437-37.312 1.631 4.438 3.274 8.865 4.904 13.303 5.093 13.791 10.175 27.582 15.267 41.384.644 1.731 1.276 3.462 1.92 5.192h20.015c-.055-.177-.1-.344-.166-.51m-38.09-70.919c.012-.034.023-.078.034-.111.055-.1.1-.2.155-.3.022-.033.056-.077.078-.122.011-.011.022-.011.022-.022a31 31 0 0 1-.289.555m.322-.599s.011-.023.011-.034c0 .011 0 .022-.011.034"/><path fill="#1F2937" d="M130.339 196.949c5.203 1.176 9.952-1.576 11.605-6.535.488-1.465.977-2.918 1.465-4.383H123.56c-1.132 4.538 2.163 9.875 6.779 10.918m55.12-10.918c.533 1.443 1.065 2.896 1.598 4.338.876 2.375 2.119 4.361 4.404 5.659 2.009 1.143 4.927 1.631 7.168.932 4.382-1.365 8.221-6.18 6.845-10.929z"/><path fill="#1F2937" d="M110.934 197.391c0-6.934 5.702-12.571 12.726-12.571 5.381 0 9.974 3.296 11.838 7.944.888 2.219-.755 4.627-3.173 4.627zm107.878 0c0-6.934-5.703-12.571-12.726-12.571-5.381 0-9.974 3.296-11.838 7.944-.888 2.219.754 4.627 3.173 4.627z"/><path fill="#000" d="M123.252 185.231c4.738-.211 6.968 4.327 7.656 8.343.111.644 1.087.366.976-.266-.765-4.483-3.45-9.32-8.632-9.087-.643.033-.654 1.043 0 1.01m11.74 11.605v-2.618c0-.655-1.009-.655-1.009 0v2.618c-.012.655 1.009.655 1.009 0m60.785-.234v-2.619c0-.654-1.009-.654-1.009 0v2.619c0 .654 1.009.654 1.009 0"/><path fill="#FDA4AF" d="M131.858 82.336c-.034.144.133-.011.543-.832l-.022.022c-.155.278-.344.544-.521.81m3.473 14.99c.033.01.067.022.111.033.067.022.133.044.2.055-.877-.521-1.021-.499-.81-.355.055.034.111.056.155.09.111.066.222.121.344.177"/><path fill="#000" d="M190.497 94.873c-5.159 5.969-17.719 3.14-24.564 2.852a8.4 8.4 0 0 0-1.187-.045c-.355-.01-.721 0-1.077.034-8.154.3-16.42.676-24.575.288-.399-.022-.799-.044-1.198-.078-2.153-.177-3.906-1.054-5.215-2.352-2.696 5.759-5.27 11.583-7.999 17.331 2.174 1.309 4.537 2.319 7.078 2.929 5.481 1.32 11.251 1.032 16.842.987a636 636 0 0 0 15.999-.366c6.935.244 14.069.888 20.992.166 5.048-.521 9.952-1.83 14.08-4.937a36 36 0 0 0 4.638-4.138 320 320 0 0 1-12.826-14.09c-.278.51-.611.976-.988 1.42"/><path fill="#FDA4AF" d="M207.395 73.473c-2.374-3.983-5.758-7.634-9.719-10.075-2.785-1.72-6.103-2.63-9.309-3.117-.022 0-.044-.011-.067-.011-1.975 5.958-3.694 11.982-4.593 18.184 1.365.189 2.707.488 3.994.91-.199-.1-.399-.2-.61-.288.322.133.644.266.976.41-.122-.044-.244-.078-.366-.122 4.838 2.519 6.402 9.464 3.784 14.102a333 333 0 0 0 12.825 14.09c1.765-1.897 3.285-4.027 4.394-6.424 4.172-8.931 3.772-19.138-1.309-27.66m-18.939 6.146q-.016 0 0 0"/><path fill="#FDA4AF" d="M187.702 79.363c.122.044.244.077.366.122a62 62 0 0 1-.976-.41c.211.088.41.188.61.288m1.533 16.787c.033-.033.077-.066.11-.1-.676.434-.887.589-.865.6.033-.022.067-.033.1-.056.222-.133.444-.288.655-.443m-20.868 1.041-1.054-9.763a2.9 2.9 0 0 0 2.718-.167 2.9 2.9 0 0 0 .965-3.983 2.9 2.9 0 0 0-3.983-.965c-.078.044-.155.1-.233.155l-.455-4.205a1.07 1.07 0 0 0-1.01-.954c-2.596-.133-9.996.233-12.115 8.11-.156.6.211 1.21.821 1.332l3.117.621-2.707 8.421c-1.02 3.173.244 6.69 3.129 8.366.133.077.277.155.411.222 5.059 2.662 11.006-1.52 10.396-7.19"/><path fill="#1F2937" d="M160.087 78.707c-1.698.488-3.395.976-5.093 1.454-.299.088-.488.465-.299.743.366.555.721 1.11 1.087 1.664.355.544 1.232.033.877-.51-.367-.555-.722-1.11-1.088-1.665-.1.245-.2.5-.299.744 1.697-.488 3.395-.977 5.092-1.454.622-.177.355-1.154-.277-.976m9.127 5.382c-.633.077-1.276.166-1.909.244-.277.033-.499.21-.51.51 0 .244.233.544.51.51.633-.077 1.276-.166 1.909-.244.277-.033.499-.21.51-.51 0-.244-.233-.544-.51-.51"/><path fill="#FDA4AF" d="m192.571 63.72-1.043-4.704c-.255-1.276-1.83-2.674-3.361-2.12-1.498.544-1.898 2.375-1.576 4.006l.411 2.796-.566-.244-8.199-5.015c-1.92-1.176-4.072-1.199-4.771-.045l-.1.156c-.655 1.065.155 2.773 1.797 3.95-1.797-.933-3.683-.866-4.338.2l-.1.154c-.466.766-.177 1.864.633 2.863-1.076-.166-2.053.133-2.508.888-.854 1.397.111 3.55 2.153 4.804l8.942 5.48c4.139 2.541 9.553 1.232 12.083-2.906a8.78 8.78 0 0 0 1.187-5.892z"/><path fill="#1F2937" d="M193.751 68.123c-.233-1.52-.411-3.05-.688-4.56-.311-1.653-.544-3.561-1.176-5.126-.943-2.33-4.205-3.029-5.459-.588-.91 1.776-.178 4.117.1 5.98l.621-.62c-2.929-1.232-5.614-3.385-8.332-5.016-1.476-.887-3.784-1.83-5.326-.554-1.919 1.597-.144 4.083 1.331 5.225.2-.266.411-.532.611-.798-1.443-.655-3.606-1.288-4.838.133-1.032 1.187-.488 2.651.344 3.783l.433-.766c-3.018-.255-4.15 2.497-2.541 4.849.932 1.365 2.497 2.141 3.872 2.985l9.819 6.024c.555.344 1.066-.532.511-.876-2.43-1.487-4.86-2.985-7.301-4.472-1.287-.787-2.574-1.575-3.872-2.374-.333-.2-.643-.4-.954-.621-1.72-1.265-3.084-4.793.455-4.494.366.034.654-.466.444-.765-.533-.721-1.132-1.864-.389-2.64.866-.91 2.541-.323 3.495.11.477.222 1.11-.41.61-.799-.92-.721-2.718-2.44-1.475-3.672 1.043-1.032 2.973-.122 3.983.444.943.521 1.853 1.131 2.774 1.697 1.975 1.21 3.916 2.674 6.058 3.573.399.166.676-.3.621-.622-.211-1.442-.777-3.306-.366-4.737.665-2.341 3.384-1.487 3.938.432.2.677.311 1.398.455 2.086.522 2.341.888 4.671 1.243 7.046.122.643 1.098.366.999-.267"/><path fill="#1F2937" d="M186.495 63.82c1.121.688 2.252 1.376 3.373 2.064.555.344 1.065-.533.51-.877-1.12-.687-2.252-1.375-3.372-2.063-.555-.344-1.066.532-.511.876m-12.847-1.733c2.962 1.809 5.924 3.628 8.898 5.437.554.344 1.065-.533.51-.877-2.962-1.808-5.936-3.628-8.898-5.436-.555-.344-1.065.543-.51.876m-2.553 4.147c2.862 1.753 5.736 3.506 8.598 5.26.555.343 1.066-.533.511-.877-2.863-1.753-5.736-3.506-8.599-5.26-.555-.343-1.065.533-.51.877"/><path fill="#1F2937" d="M169.637 69.598c2.385-3.894 4.771-7.8 7.145-11.694.344-.555-.533-1.065-.877-.51-2.385 3.894-4.77 7.8-7.145 11.694-.344.566.533 1.076.877.51m17.154-9.938c1.487.155 2.963.155 4.438-.011.644-.067.655-1.088 0-1.01a20.5 20.5 0 0 1-4.438.011c-.643-.078-.643.943 0 1.01m-38.556 11.058c-1.165 2.984-4.838 2.507-7.345 2.052-.644-.11-.91.866-.266.977 3.162.577 7.189.832 8.598-2.763.222-.61-.754-.865-.987-.266M114.55 82.857c0-1.21.422-2.33 1.232-3.23.432-.487-.278-1.209-.722-.72a5.9 5.9 0 0 0-1.531 3.95c0 .654 1.021.654 1.021 0m92.521-2.786a6.1 6.1 0 0 1 1.398 3.562c.033.654 1.054.654 1.021 0-.089-1.598-.666-3.04-1.687-4.283-.432-.5-1.154.222-.732.721m-50.304 4.719c1.243-.411 2.674-.744 3.995-.544.399.066.455.033.599.477.233.677-.3.499-.81.499-.522-.011-.988-.067-1.509.033-.644.122-.366 1.099.266.977 1.021-.189 2.097.321 2.974-.466.521-.466.588-1.22.155-1.764-1.22-1.565-4.427-.688-5.958-.19-.599.2-.333 1.177.288.977m6.027-5.449c-.166.611-.321 1.221-.488 1.82-.166.633.81.9.976.267.167-.61.322-1.21.489-1.82.177-.621-.799-.899-.977-.266"/><path fill="#000" d="M206.589 184.133c-5.092-.044-8.609 4.605-9.508 9.22-.122.644.854.91.976.266.81-4.171 3.883-8.521 8.532-8.476.655.011.655-.999 0-1.01"/><path fill="#EAFF00" d="M41.446 51.137c-4.682-2.796-7.633-6.868-7.633-11.395 0-8.443 10.24-15.289 22.877-15.289 12.638 0 22.878 6.846 22.878 15.289S69.328 55.031 56.69 55.031c-3.76 0-7.3-.61-10.44-1.687l-12.426 9.298zm252.078 89.25h-66.526c-2.785 0-5.07 2.285-5.07 5.07v40.563c0 2.785 2.285 5.071 5.07 5.071h54.687l13.126 13.747-4.971-13.747h3.684c2.785 0 5.07-2.286 5.07-5.071v-40.563c0-2.785-2.285-5.07-5.07-5.07" opacity=".6"/><path fill="#EAFF00" d="M129.923 116.174H36.414a4.5 4.5 0 0 0-4.482 4.482v51.803a4.5 4.5 0 0 0 4.482 4.482h5.648L31 206.698l30.522-29.757h68.412c2.463 0 4.483-2.019 4.483-4.482v-51.803c0-2.463-2.02-4.482-4.494-4.482"/><path fill="#000" d="M91.105 136.387h29.28c1.52 0 1.531-2.364 0-2.364h-29.28c-1.52 0-1.531 2.364 0 2.364m-42.867.002c9.02.089 18.051.111 27.072.055 1.52-.011 1.53-2.374 0-2.363-9.02.055-18.052.033-27.072-.055-1.52-.023-1.52 2.352 0 2.363m.199 11.05h69.854c1.52 0 1.531-2.363 0-2.363H48.437c-1.52-.011-1.52 2.363 0 2.363m17.868 11.52h13.27c1.52 0 1.53-2.363 0-2.363h-13.27c-1.532 0-1.532 2.363 0 2.363m-18.213 0h9.885c1.52 0 1.532-2.363 0-2.363h-9.885c-1.531 0-1.531 2.363 0 2.363"/><path fill="#EAFF00" d="m311.798 122.369-17.386-29.923c10.874-7.356 17.653-17.74 17.653-29.246 0-22.29-25.419-40.364-56.785-40.364S198.496 40.91 198.496 63.2s25.419 40.363 56.784 40.363c10.03 0 19.45-1.853 27.638-5.092z"/><path fill="#000" d="M252.017 53.169c13.736-.09 27.461-.09 41.196.066 1.52.022 1.531-2.352 0-2.374-13.735-.155-27.46-.155-41.196-.067-1.531.011-1.531 2.375 0 2.375m-29.046.065h11.827c1.52 0 1.531-2.375 0-2.375h-11.827c-1.532.011-1.532 2.375 0 2.375m58.572 12.427h11.317c1.52 0 1.531-2.374 0-2.374h-11.317c-1.531.011-1.531 2.374 0 2.374m-57.852 0c14.124.111 28.259.111 42.383.045 1.52-.011 1.531-2.375 0-2.375-14.124.067-28.259.067-42.383-.044-1.52 0-1.52 2.363 0 2.374m23.568 11.893h14.302c1.52 0 1.531-2.374 0-2.374h-14.302c-1.52 0-1.52 2.374 0 2.374m-22.437 0h14.546c1.52 0 1.531-2.374 0-2.374h-14.546c-1.531 0-1.531 2.374 0 2.374"/><path fill="#EAFF00" d="M91.39 54.477c-21.968 0-39.787 11.916-39.787 26.617 0 10.806 9.62 20.104 23.444 24.275l-6.557 10.596 13.081-9.076c3.14.533 6.424.821 9.82.821 21.967 0 39.786-11.916 39.786-26.616 0-14.701-17.808-26.617-39.787-26.617"/><path fill="#000" d="M105.91 73.507h9.519c1.52 0 1.531-2.374 0-2.374h-9.519c-1.52.01-1.52 2.374 0 2.374m-35.584 0h27.316c1.52 0 1.531-2.374 0-2.374H70.326c-1.531.01-1.531 2.374 0 2.374m17.13 11.003h27.261c1.52 0 1.531-2.364 0-2.364h-27.26c-1.52 0-1.52 2.364 0 2.364m-16.748 0h8.754c1.52 0 1.53-2.364 0-2.364h-8.754c-1.52 0-1.532 2.364 0 2.364"/><path fill="#EAFF00" d="M152.177 23.074h-31.909a3.09 3.09 0 0 0-3.084 3.085v16.41a3.09 3.09 0 0 0 3.084 3.084h6.457l-8.754 11.095 16.709-11.095h17.508a3.09 3.09 0 0 0 3.085-3.085v-16.41a3.11 3.11 0 0 0-3.096-3.084"/><path fill="#000" d="M125.403 30.25h22.29c.655 0 .655-1.01 0-1.01h-22.29c-.655-.01-.655 1.01 0 1.01m.524 4.316h22.134c.655 0 .655-1.01 0-1.01h-1.398c-.655 0-.655 1.01 0 1.01h1.398c.655 0 .655-1.01 0-1.01h-22.134c-.655 0-.655 1.01 0 1.01m.349 4.838h21.081c.654 0 .654-1.01 0-1.01h-21.081c-.654 0-.654 1.01 0 1.01"/><path fill="#EAFF00" d="M205.421 161.088h-43.758c-2.33 0-4.227 1.531-4.227 3.406v18.14c0 1.875 1.897 3.407 4.227 3.407h8.854l-6.424 11.638 15.965-11.638h25.363c2.33 0 4.228-1.532 4.228-3.407v-18.14c0-1.875-1.898-3.406-4.228-3.406"/><path fill="#000" d="M168.717 168.959h30.567c.654 0 .654-1.01 0-1.01h-30.567c-.644 0-.644 1.01 0 1.01m.721 4.767h30.356c.655 0 .655-1.021 0-1.021h-1.919c-.655 0-.655 1.021 0 1.021h1.919c.655 0 .655-1.021 0-1.021h-30.356c-.654.011-.654 1.021 0 1.021m.473 5.347h28.913c.655 0 .655-1.02 0-1.02h-28.913c-.655.011-.655 1.02 0 1.02M44.718 35.863h23.61c.654 0 .654-1.01 0-1.01h-23.61c-.655 0-.655 1.01 0 1.01m.541 4.577h23.443c.655 0 .655-1.01 0-1.01h-1.475c-.655 0-.655 1.01 0 1.01h1.475c.655 0 .655-1.01 0-1.01H45.26c-.655 0-.655 1.01 0 1.01m.374 5.124h22.323c.654 0 .654-1.021 0-1.021H45.634c-.655.011-.655 1.02 0 1.02"/><path fill="#EAFF00" d="M213.327 122.611c5.193-3.107 8.466-7.623 8.466-12.649 0-9.364-11.372-16.964-25.397-16.964S171 100.598 171 109.962s11.372 16.965 25.396 16.965c4.172 0 8.111-.677 11.584-1.864l9.564 11.638z"/><path fill="#000" d="M183.622 105.445h25.618c.655 0 .655-1.009 0-1.009h-25.618c-.655 0-.655 1.009 0 1.009m.597 4.969h25.441c.655 0 .655-1.01 0-1.01h-1.608c-.655 0-.655 1.01 0 1.01h1.608c.655 0 .655-1.01 0-1.01h-25.441c-.654-.011-.654 1.01 0 1.01m.401 5.561h24.231c.655 0 .655-1.01 0-1.01H184.62c-.644-.011-.655 1.01 0 1.01m69.749 39.529h29.801c1.52 0 1.531-2.363 0-2.363h-29.801c-1.531-.011-1.531 2.363 0 2.363m-18.924 0h11.117c1.52 0 1.531-2.363 0-2.363h-11.117c-1.52-.011-1.531 2.363 0 2.363m0 21.771h18.451c1.52 0 1.531-2.363 0-2.363h-18.451c-1.52 0-1.531 2.363 0 2.363m33.592-10.199h15.145c1.52 0 1.531-2.363 0-2.363h-15.145c-1.531 0-1.531 2.363 0 2.363m-33.592 0h25.552c1.52 0 1.531-2.363 0-2.363h-25.552c-1.52 0-1.531 2.363 0 2.363"/><path fill="#CBD5E1" d="M37.154 74.292v26.439c0 3.273 5.082 3.306 5.082.033V74.325c0-3.273-5.082-3.306-5.082-.033m3.036 38.323c3.273 0 3.307-5.082.033-5.082s-3.306 5.082-.033 5.082m134.539-85.533c3.273 0 3.307-5.082.033-5.082s-3.306 5.081-.033 5.081m.522 12.959c3.273 0 3.306-5.081.033-5.081s-3.306 5.081-.033 5.081m58.113 78.846c1.886 1.453 2.518 4.282.787 6.146-2.219 2.386 1.376 5.969 3.606 3.573 3.451-3.706 3.318-10.141-.821-13.325-1.098-.843-2.529-1.032-3.595.022-.876.865-1.054 2.752.023 3.584M73.367 192.443h15.034c3.273 0 3.306-5.082.033-5.082H73.401c-3.262.011-3.296 5.082-.034 5.082"/></g><defs><clipPath id="a"><path fill="#fff" d="M0 0h343v229H0z"/></clipPath></defs></svg>