<svg width="51" height="51" viewBox="0 0 51 51" fill="none" xmlns="http://www.w3.org/2000/svg">
<g filter="url(#filter0_d_38_1184)">
<path d="M5.37402 21.535C5.37402 10.4893 14.3283 1.53497 25.374 1.53497V1.53497C36.4197 1.53497 45.374 10.4893 45.374 21.535V21.535C45.374 32.5807 36.4197 41.535 25.374 41.535V41.535C14.3283 41.535 5.37402 32.5807 5.37402 21.535V21.535Z" fill="#FFCC00"/>
<path d="M18.7022 0.568483C18.8534 0.495076 19.1121 0.551802 19.2996 0.505025C20.0897 0.313904 20.401 0.334028 21.1246 0.237341C22.1815 0.0312747 25.3859 -0.319321 25.374 0.627747C25.374 0.62777 25.374 0.627792 25.374 0.627815C25.374 0.63665 25.3737 0.645588 25.3731 0.654631C25.3615 0.82592 25.1031 1.01499 25.069 1.2101C25.035 1.40535 25.0771 2.65643 24.7474 2.73664C24.2713 2.83454 23.0786 2.62408 22.8167 2.68237C22.6404 2.7159 22.4406 2.86054 22.2195 2.9183C21.5128 3.10698 21.1125 3.11224 20.5609 3.57644C20.2673 3.48603 19.9694 3.40244 19.6666 3.32628C19.3574 3.50044 18.7914 3.47251 18.5942 3.56118C18.4339 3.63234 18.386 3.78958 18.2212 3.86257C18.0375 3.94498 17.694 3.93753 17.3654 4.112C16.8285 4.40012 16.8862 4.75393 16.5914 4.95609C16.287 5.1662 15.6931 5.29474 15.3551 5.65024C15.3248 5.71322 15.2949 5.77624 15.2655 5.8393C15.3464 5.88676 15.4269 5.93466 15.507 5.98297C15.3317 6.14119 15.1539 6.05296 14.9726 6.17161C14.7597 6.31202 14.7483 6.5201 14.6106 6.61835C14.4978 6.69881 14.2681 6.7064 14.1286 6.82366C13.9257 6.9942 14.0881 7.10746 13.9997 7.22219C13.9587 7.26312 13.238 8.0107 13.2018 8.05524C12.8811 8.3581 12.6766 8.19892 12.4047 8.4336C11.6524 9.09004 11.1453 10.0071 10.6767 10.7823C10.4658 11.1292 10.2166 11.4679 9.9656 11.787C9.75944 10.8789 8.54857 11.8423 9.71566 11.9212C9.35263 12.2328 9.43462 12.6528 9.19415 13.0051C9.03906 13.2346 8.82237 13.3424 8.6556 13.7042C8.356 14.3535 8.46966 15.2053 7.70983 15.1485C7.54602 15.9779 7.10062 16.6204 7.65796 17.0688C7.64388 17.2788 7.14658 17.7292 7.05054 17.9599C6.93778 18.1667 6.52908 19.9051 6.5212 20.2009C6.48941 20.4929 6.45878 21.0015 6.51363 21.249C6.53498 21.3495 6.62037 21.4406 6.69954 21.535C6.69954 21.535 6.69954 21.535 6.69954 21.535C6.8654 21.7343 7.0017 21.9361 6.48426 22.3254C6.57812 22.9619 6.57458 23.1839 6.55018 23.7882C6.54655 23.8973 6.43224 23.924 6.44013 23.9871C6.45675 24.1174 6.57206 24.3236 6.61926 24.5518C6.69676 24.9257 6.49902 25.1854 6.85957 25.0735C6.96782 25.306 7.081 25.5376 7.19813 25.764C7.14706 25.8649 7.0968 25.9665 7.04735 26.0688C7.15597 26.1793 7.26571 26.2884 7.37643 26.3956C6.80686 26.3866 7.37686 27.2089 7.59055 26.8248C7.61824 27.3131 7.66617 27.8046 7.73514 28.2984C7.12729 28.4599 8.07675 29.3226 8.34765 29.087C8.36944 29.1372 8.39144 29.1873 8.41365 29.2374C8.46423 29.7428 8.78088 30.0816 8.9685 30.6472C9.16253 31.2147 9.08837 31.195 8.93815 31.4988C9.02582 31.6117 9.1146 31.7235 9.20448 31.834C10.2587 32.0149 9.05751 32.6871 10.3157 33.352C10.1782 33.9786 11.0465 34.6021 11.6192 34.9659C11.6857 35.0092 11.7544 34.9436 11.8474 34.9956C12.0708 35.1249 12.4535 35.6514 12.6457 35.4091C12.7466 35.6221 12.8522 35.8344 12.9628 36.0458C13.1365 36.1212 13.3108 36.1936 13.4853 36.263C13.5448 36.188 13.6042 36.113 13.6637 36.038C13.7356 36.5182 14.2692 36.7617 14.4515 36.9842C14.488 37.0291 14.4212 37.1443 14.5447 37.2735C14.6888 37.4258 15.0276 37.603 15.2127 37.7668C15.3708 37.6934 15.5275 37.6182 15.6827 37.5413C16.0864 37.692 16.0265 38.0991 16.2367 38.2496C16.2725 38.2804 17.0283 38.6396 17.0745 38.6478C17.4373 38.7443 17.473 38.4207 18.4107 38.886C18.5786 38.9672 18.6793 39.1277 18.8375 39.1913C19.116 39.3102 20.0549 39.3399 20.1848 39.1244C20.4403 39.5181 21.4074 39.6284 21.6678 39.7623C21.7462 39.8048 21.7274 39.9963 21.9822 40.0844C22.19 40.1577 22.7621 40.093 23.0281 40.1496C23.3115 40.2123 23.4008 40.3808 23.5291 40.4049C23.6513 40.4271 23.7757 40.3089 23.9426 40.3222C24.4652 40.366 24.9308 40.5872 25.3547 40.5916C25.3612 40.5916 25.3676 40.5917 25.374 40.5916C25.9785 40.5892 26.4865 40.1876 26.9556 39.9799C27.0792 39.9943 27.2057 40.0647 27.3345 40.052C28.9223 39.9049 30.6942 39.5489 32.2241 39.03C32.9337 38.8237 34.8493 38.4126 33.9977 37.8773C34.1587 37.6484 35.9255 36.9763 36.2142 36.7455C36.5087 36.5413 36.6401 36.2462 36.8567 36.0722C37.5065 35.5429 38.0354 35.2304 38.6569 34.4038C38.8162 34.1891 38.8713 33.8577 38.9755 33.7446C39.1016 33.6086 39.3682 33.5739 39.534 33.3939C39.9335 32.9689 40.5306 32.0629 40.8537 31.61C40.9141 31.5281 41.0647 31.5827 41.1846 31.4843C41.6547 31.101 41.9531 30.5172 41.4607 30.3794C42.0587 29.8791 42.1201 29.1487 42.3584 28.5295C42.9089 27.2319 43.6318 24.725 43.5103 23.4719C43.4483 22.6898 43.2384 22.7079 43.4491 21.5847C43.452 21.5681 43.4549 21.5516 43.4578 21.535C43.4578 21.535 43.4578 21.535 43.4578 21.535C43.4994 21.2994 43.5489 21.0609 43.585 20.7741C43.6766 20.0593 44.0138 19.3318 43.4413 18.8573C43.4508 18.0438 43.225 17.4479 43.4842 16.7584C43.3674 16.7151 43.2504 16.673 43.1334 16.6322C43.1048 16.5378 43.0755 16.4437 43.0454 16.35C43.1301 16.2932 43.2146 16.236 43.2988 16.1783C43.1203 15.4758 42.4286 14.7686 42.1934 14.2297C41.8451 13.2954 40.6599 10.9966 40.1333 10.176C39.873 9.72876 39.6943 9.84523 39.8334 9.34323C39.7358 9.27383 39.6378 9.20553 39.5393 9.13835C39.4212 9.1458 39.3035 9.15433 39.1862 9.16393C38.751 8.68106 38.303 8.02959 37.833 7.61301C36.9829 6.83675 35.4562 6.05499 34.5492 5.36178C34.3229 5.18343 34.097 4.84301 33.8418 4.7172C33.4696 4.53553 33.2439 4.78111 32.7729 4.57881C31.9743 4.22005 30.5048 3.3442 29.6538 3.19366C29.4051 3.14477 29.264 3.23741 29.0919 3.21535C28.371 3.1272 27.7764 3.03265 27.0712 3.15217C26.3596 2.78449 26.4338 2.40132 26.2138 1.98824C26.0494 1.67631 25.4757 0.965955 25.3844 0.703217C25.3232 0.517083 25.5522 0.278517 25.4674 0.0735294C26.5013 -0.0784892 26.9406 0.136619 27.7283 0.50739C29.244 0.663542 30.7449 0.984626 32.1941 1.46505C32.2897 1.61552 32.3826 1.76654 32.4728 1.91802C32.4727 1.91825 32.4726 1.91848 32.4725 1.91871C32.9685 2.23731 33.2974 2.06469 33.6141 2.12683C36.7732 2.57144 41.3734 6.89156 42.9657 9.79851C43.3798 10.3784 44.629 12.3709 44.6351 12.9092C44.6438 13.0447 44.5003 13.1461 44.5465 13.2717C45.1137 14.3274 45.5931 15.4404 45.9744 16.5956C46.1839 18.2284 46.4132 19.8697 46.4696 21.535C46.4991 22.4018 46.4819 23.2652 46.3919 24.1205C45.7302 30.8958 41.522 37.2048 35.5312 40.3532C34.3886 40.9726 32.8967 41.734 31.642 42.021C31.1197 42.1411 30.8379 41.9356 30.2116 42.2965C30.1876 42.2255 30.1637 42.1546 30.1399 42.0836C29.5716 42.3046 29.2235 42.5463 28.547 42.6672C27.984 42.7807 26.4572 42.92 25.9515 42.8906C25.6873 42.8824 25.7831 42.7414 25.5384 42.7448C25.4896 42.7454 25.4345 42.7485 25.374 42.7533C25.374 42.7533 25.374 42.7533 25.374 42.7533C24.9147 42.7924 24.1508 42.9148 23.6346 42.8705C23.1089 42.8328 22.2483 42.5594 21.8489 42.512C20.409 42.3584 18.7855 42.162 17.3505 41.514C16.9546 41.3374 16.5219 40.944 16.4 40.8917C16.1586 40.7906 16.012 40.9139 15.8419 40.8555C14.9728 40.5636 13.8588 39.6617 13.15 39.147C10.8054 37.4968 8.61516 35.2989 7.13725 32.8405C6.15855 31.3194 4.95698 28.5309 4.71455 26.8715C4.65458 26.5181 4.86445 26.5652 4.79661 26.2757C4.7233 25.9547 4.56116 25.8038 4.52079 25.6543C4.24434 24.7162 3.91616 22.6715 4.0194 21.535C4.02739 21.4197 4.03829 21.3143 4.05186 21.2207C4.08022 21.0267 4.23503 20.8915 4.23847 20.7771C4.24055 20.7191 4.1425 20.5843 4.14164 20.4002C4.14489 18.7734 4.39307 17.5937 4.82475 16.0647C5.64087 13.1424 7.15205 9.84232 9.37246 7.50496C9.85168 6.99365 10.4021 6.86649 10.4663 6.7962C10.6114 6.64206 10.5651 6.40228 10.8476 6.06728C11.7868 4.94141 13.4927 3.94093 14.6311 3.17504C15.189 2.78639 15.9125 2.12697 16.5147 1.79833C16.9914 1.52238 18.2289 1.16167 18.424 0.987325C18.5418 0.876506 18.5395 0.648943 18.7022 0.568483ZM8.32692 14.0225C8.03976 13.8052 7.96301 14.7339 8.26252 14.4984C8.32804 14.4466 8.39943 14.0789 8.32692 14.0225ZM29.5692 40.3016C29.5396 40.2068 29.5101 40.112 29.4808 40.0172C29.3754 40.0826 29.2681 40.1474 29.1612 40.211C29.2374 40.2563 29.3152 40.3009 29.393 40.3452C29.4519 40.331 29.5106 40.3164 29.5692 40.3016Z" fill="#007AFF"/>
<g clip-path="url(#clip0_38_1184)">
<path d="M12.1656 23.3262L12.2418 23.1223L12.0512 23.215L12.1084 23.0296L11.9368 23.1223L11.994 22.9369L11.8225 23.0111L11.8797 22.8443L11.7081 22.8999L11.7653 22.7516L11.5938 22.8072L11.651 22.6589L11.4794 22.696L11.5557 22.5477L11.3651 22.5662L11.4413 22.4179H11.2507L11.346 22.3067L11.1554 22.2881L11.2698 22.1769L11.0983 22.1584L11.1936 22.0472L11.0411 22.0101L11.1364 21.9359L11.003 21.8803L11.0983 21.8062L10.9648 21.7506L11.0601 21.6764L10.9267 21.6208L11.003 21.5466L10.8886 21.491L10.9648 21.4169L10.8505 21.3613L10.9267 21.2871L10.8124 21.2315L10.8886 21.1574L10.7933 21.1018L10.8696 21.0276L10.7552 20.972L10.8314 20.8978L10.7361 20.8422L10.7933 20.7866L10.698 20.7125L10.7552 20.6569L10.679 20.5827L10.7361 20.5271L10.6408 20.4529L10.698 20.3973L10.6218 20.3232L10.679 20.2676L10.5837 20.1934L10.6408 20.1378L10.5646 20.0637L10.6218 20.008L10.5265 19.9339L10.5837 19.8783L10.5074 19.8041L10.5646 19.7485L10.4884 19.6744L10.5265 19.6188L10.4503 19.5446L10.5074 19.489L10.4312 19.4149L10.4884 19.3592L10.4121 19.2851L10.4693 19.2295L10.4121 19.1553L10.4503 19.0997L10.3931 19.007L10.4503 18.97L10.3931 18.8773L10.4312 18.8402L10.374 18.7475L10.4312 18.7104L10.374 18.6178L10.4312 18.5621L10.3931 18.4695L10.4503 18.4324L10.4121 18.3212L10.4693 18.2841L10.4503 18.1914L10.4884 18.1543V18.0616L10.5265 18.0246V17.9133L10.5646 17.8948V17.7836L10.6027 17.765V17.6538L10.6408 17.6353V17.524L10.679 17.5055V17.3943L10.7171 17.3758V17.2831L10.7552 17.246V17.1533L10.7933 17.1162L10.8124 17.0235L10.8505 16.9865V16.8938L10.8886 16.8567V16.764L10.9267 16.7269V16.6343L10.9648 16.6157V16.5045L11.022 16.486L11.003 16.3747L11.0601 16.3562V16.245L11.1173 16.2264L11.0983 16.0967H11.1554L11.1364 15.9669H11.2126L11.1936 15.8372H11.2698L11.2317 15.7074H11.327L11.2888 15.5776H11.3841L11.346 15.4293L11.4604 15.4664L11.4223 15.2996L11.5557 15.3366L11.5176 15.1513L11.651 15.2254V15.003L11.7844 15.0957V14.8917L11.8987 15.003V14.7991L12.0131 14.9103L12.0321 14.7064L12.1274 14.8361L12.1465 14.6137L12.2608 14.762V14.521L12.3752 14.6878L12.3943 14.4469L12.5086 14.6322V14.3727L12.623 14.5581L12.642 14.2986L12.7564 14.5025L12.7754 14.2244L12.8898 14.4469V14.1688L13.0232 14.3912V14.1132L13.1566 14.3542V14.0576L13.271 14.3171L13.29 14.0205L13.4044 14.2615L13.4234 13.9834L13.5378 14.2244L13.5568 13.9463L13.6903 14.2059L13.7093 13.9278L13.8237 14.1688L13.8427 13.8907L13.9571 14.1317L13.9761 13.8722L14.0905 14.1132L14.1096 13.8537L14.2239 14.0946L14.262 13.8351L14.3573 14.0576L14.3954 13.8166L14.4907 14.039L14.5288 13.798L14.6241 14.0205L14.6813 13.7795L14.7766 14.002L14.8147 13.7795L14.91 13.9834L14.9481 13.761L15.0434 13.9649L15.1006 13.7424L15.1768 13.9463L15.234 13.7239L15.3103 13.9278L15.3865 13.7239L15.4627 13.9093L15.5199 13.7054L15.5961 13.8907L15.6724 13.6868L15.7296 13.8722L15.8058 13.6868L15.882 13.8722L15.9773 13.6683L16.0345 13.8722L16.1488 13.6683L16.187 13.8537L16.3013 13.6683L16.3204 13.8537L16.4347 13.6683L16.4728 13.8537L16.5872 13.6683L16.6063 13.8537L16.7206 13.6683L16.7397 13.8722L16.8731 13.6683L16.8921 13.8722L17.0065 13.6868L17.0256 13.8907L17.159 13.6868V13.8907L17.2924 13.7054L17.3114 13.9093L17.4448 13.7054V13.9463L17.6164 13.7424L17.5973 13.9649L17.7498 13.761V14.002L17.9023 13.798L17.8832 14.0205L18.0547 13.8351L18.0357 14.0576L18.2072 13.8722L18.1691 14.0946L18.3406 13.9093L18.3216 14.1317L18.4931 13.9463L18.455 14.1873L18.6456 13.9834L18.5884 14.2244L18.798 14.0205L18.7408 14.28L18.9505 14.0576L18.8743 14.3171L19.103 14.1132L19.0077 14.3727L19.2554 14.1688L19.1601 14.4283L19.4079 14.2244L19.2936 14.5025L19.5604 14.28L19.427 14.5581L19.6938 14.3542L19.5604 14.6322L19.8272 14.4283L19.6938 14.7064L19.9606 14.5025L19.8081 14.7805L20.094 14.5952L19.9225 14.8732L20.2274 14.6878L20.0368 14.9659L20.3418 14.7991L20.1512 15.0586L20.4561 14.9103L20.2465 15.1883L20.5705 15.04L20.3227 15.3366L20.7039 15.2254L20.4371 15.4664L20.7992 15.3923L20.5324 15.5962L20.8754 15.5406L20.6086 15.7259L20.9136 15.6889L20.6658 15.8557L20.9707 15.8372L20.723 15.9855H21.0088L20.7611 16.1152L21.0279 16.1338L20.8183 16.245L21.066 16.2635L20.8564 16.3747L21.0851 16.4118L20.8754 16.523L21.1232 16.5416L20.9136 16.6528L21.1423 16.6713L20.9517 16.7826L21.1804 16.8196L20.9898 16.9123L21.2185 16.9494L21.0279 17.0421L21.2376 17.0792L21.066 17.1718L21.2757 17.2089L21.1041 17.3016L21.3138 17.3387L21.1423 17.4314L21.3519 17.4684L21.1613 17.5611L21.4091 17.5982L21.1994 17.6723L21.4472 17.728L21.2376 17.8021L21.4853 17.8577L21.2757 17.9319L21.5234 17.9875L21.3138 18.0616L21.5616 18.1172L21.3519 18.2099L21.5997 18.247L21.371 18.3397L21.6378 18.3953L21.4091 18.4695L21.6759 18.5251L21.4281 18.5992L21.695 18.6548L21.4472 18.729L21.714 18.8031L21.4663 18.8773L21.7331 18.9514L21.4663 19.007L21.7331 19.0997L21.4663 19.1553L21.7331 19.2666L21.4472 19.3036L21.714 19.4519L21.4281 19.4705L21.6568 19.6373H21.4091L21.6187 19.7856L21.371 19.7671L21.5616 19.9154H21.3328L21.5234 20.0637L21.2947 20.0451L21.4663 20.1934L21.2566 20.1749L21.4091 20.3232L21.1994 20.3046L21.3519 20.4529L21.1613 20.4344L21.3138 20.5827L21.1232 20.5642L21.2566 20.7125L21.066 20.6939L21.1994 20.8422L21.0279 20.8237L21.1613 20.972L20.9707 20.9535L21.1041 21.1018L20.9326 21.0832L21.066 21.2315L20.8754 21.213L21.0088 21.3613L20.8373 21.3427L20.9707 21.491L20.7801 21.4725L20.9326 21.6393L20.742 21.6023L20.8754 21.7691L20.6848 21.732L20.8373 21.8989L20.6277 21.8618L20.7801 22.0472L20.5705 21.9915L20.723 22.1769L20.5133 22.1213L20.6658 22.3252L20.4371 22.2511L20.5896 22.455L20.3608 22.3623L20.5133 22.6033L20.2656 22.492L20.418 22.7516L20.1703 22.6033L20.2846 22.8999L20.0559 22.733L20.1512 23.0296L19.9416 22.8628L20.0178 23.1409L19.8272 22.9555L19.8844 23.2521L19.6938 23.0482L19.751 23.3448L19.5794 23.1409L19.6176 23.4189L19.446 23.215L19.4841 23.5116L19.3126 23.2892L19.3507 23.5858L19.1983 23.3448L19.2173 23.6414L19.0648 23.4189L19.0839 23.7155L18.9314 23.4745V23.7711L18.798 23.5301V23.8267L18.6646 23.5858V23.8823L18.5312 23.6414V23.938L18.3978 23.6784V23.9936L18.2644 23.734L18.2453 24.0306L18.131 23.7711L18.1119 24.0677L17.9976 23.8082L17.9785 24.1048L17.8641 23.8453L17.8451 24.1419L17.7307 23.9194V24.1789L17.5783 23.8823L17.5592 24.216L17.4067 23.9009L17.3496 24.2531L17.2543 23.9565L17.178 24.2716L17.1018 23.9936L17.0256 24.2716L16.9684 24.0121L16.8731 24.2716L16.8159 24.0121L16.7206 24.2716L16.6825 24.0121L16.5872 24.2716L16.53 24.0121L16.4347 24.2716L16.3966 24.0121L16.2823 24.2716L16.2441 24.0121L16.1488 24.2531L16.1107 24.0121L16.0154 24.2531L15.9773 24.0121L15.863 24.2531L15.8248 24.0121L15.7296 24.2531L15.6914 24.0121L15.5771 24.2531L15.558 24.0121L15.4437 24.2716L15.4056 24.0121L15.2912 24.2716L15.2721 24.0121L15.1578 24.2716L15.1387 23.9936L15.0053 24.2716L14.9863 23.9936L14.8719 24.2716L14.8528 23.9936L14.7194 24.2716V23.975L14.586 24.2531L14.567 23.975L14.4336 24.2531V23.9565L14.3001 24.2346V23.938L14.1477 24.1975V23.9194L14.0143 24.1789V23.8823L13.8808 24.1419V23.8638L13.7284 24.1233L13.7474 23.8267L13.595 24.0677V23.7897L13.4425 24.0306L13.4615 23.7526L13.3091 23.975L13.3281 23.7155L13.1757 23.9194L13.1947 23.6599L13.0232 23.8638L13.0613 23.6043L12.8707 23.8082L12.9088 23.5487L12.7373 23.734L12.7754 23.4745L12.5848 23.6414L12.642 23.3818L12.4133 23.5487L12.4896 23.3262L12.299 23.4375V23.4004L12.2799 23.4189L12.3561 23.215L12.1656 23.3262ZM15.9964 18.8958L16.3585 18.8587L16.0154 18.766L16.3585 18.729L16.0345 18.6548L16.3776 18.5992L16.0536 18.5251L16.3776 18.4695L16.0536 18.4138L16.3585 18.3582L16.0536 18.3026L16.3394 18.247L16.0154 18.1914L16.3013 18.1172L15.9964 18.0987L16.2632 18.0246L15.9773 18.006L16.2251 17.9133H15.9583L16.2251 17.8021L15.9201 17.8206L16.1488 17.7094L15.9011 17.7465L16.0536 17.6538L15.882 17.6909L15.9583 17.6538L15.882 17.6723L15.9392 17.6167L15.882 17.6538L15.9583 17.5426V17.524L15.8439 17.6167L15.9964 17.3387L16.0154 17.2831L15.8439 17.524L15.8248 17.5611V17.5426L15.7867 17.5982V17.487L15.7105 17.3016V17.5055V17.5611V17.5797L15.6724 17.524L15.558 17.4314L15.6533 17.5982L15.6343 17.5797V17.5982L15.3293 17.487L15.558 17.765L15.3293 17.7094L15.5199 17.8577L15.3103 17.8206L15.5008 17.9319L15.2721 17.9133L15.4627 18.0246H15.234L15.4437 18.1358H15.215L15.4246 18.247H15.1768L15.4246 18.3582L15.1578 18.3768L15.4056 18.4695L15.1387 18.5065L15.3865 18.5992L15.1387 18.6178L15.3674 18.729L15.1197 18.766L15.3484 18.8587L15.1006 18.8958L15.3484 18.9885L15.1006 19.0441L15.3293 19.1368L15.0816 19.1739L15.3103 19.2666L15.0816 19.3222L15.3103 19.3963L15.0816 19.4519L15.3103 19.5261L15.0816 19.5817L15.3103 19.6558L15.1006 19.73L15.3103 19.7856L15.1006 19.8598L15.3103 19.9339L15.1387 19.9895L15.3293 20.0451L15.1768 20.1193L15.3484 20.1563L15.215 20.2305H15.3865L15.2721 20.3232L15.4246 20.3046L15.3103 20.3973L15.4627 20.3788L15.4437 20.4159L15.4818 20.3973L15.3865 20.6012L15.6533 20.49L15.6343 20.5642L15.6914 20.5271V20.6754L15.8058 20.5086L15.8439 20.6754L15.9201 20.5086L15.9392 20.5456V20.4715L16.0917 20.6754L16.1107 20.4159L16.0917 20.3603L16.2251 20.4344L16.1298 20.2861L16.2632 20.3417L16.1488 20.212L16.3204 20.249L16.1679 20.1193L16.3394 20.1563L16.187 20.0266L16.3585 20.0451L16.1679 19.9339H16.3776L16.1679 19.8227H16.3966L16.1488 19.7115H16.3966L16.1298 19.6002L16.3966 19.5817L16.1107 19.4705L16.3966 19.4519L16.0726 19.3407L16.3966 19.3222L16.0536 19.2109L16.3776 19.1924L16.0154 19.0812L16.1298 19.0626L15.9773 19.0441L16.3776 19.007L15.9964 18.8958ZM24.3937 23.3262L24.47 23.1223L24.2794 23.215L24.3366 23.0296L24.165 23.1223L24.2222 22.9369L24.0507 23.0111L24.1078 22.8443L23.9363 22.8999L23.9935 22.7516L23.822 22.8072L23.8791 22.6589L23.7076 22.696L23.7838 22.5477L23.5933 22.5662L23.6695 22.4179H23.4789L23.5742 22.3067L23.3836 22.2881L23.498 22.1769L23.3264 22.1584L23.4217 22.0472L23.2693 22.0101L23.3646 21.9359L23.2311 21.8803L23.3264 21.8062L23.193 21.7506L23.2883 21.6764L23.1549 21.6208L23.2311 21.5466L23.1168 21.491L23.193 21.4169L23.0787 21.3613L23.1549 21.2871L23.0406 21.2315L23.1168 21.1574L23.0215 21.1018L23.0977 21.0276L22.9834 20.972L23.0596 20.8978L22.9643 20.8422L23.0215 20.7866L22.9262 20.7125L22.9834 20.6569L22.9071 20.5827L22.9643 20.5271L22.869 20.4529L22.9262 20.3973L22.85 20.3232L22.9071 20.2676L22.8118 20.1934L22.869 20.1378L22.7928 20.0637L22.85 20.008L22.7547 19.9339L22.8118 19.8783L22.7356 19.8041L22.7928 19.7485L22.7166 19.6744L22.7547 19.6188L22.6784 19.5446L22.7356 19.489L22.6594 19.4149L22.7166 19.3592L22.6403 19.2851L22.6975 19.2295L22.6403 19.1553L22.6784 19.0997L22.6213 19.007L22.6784 18.97L22.6213 18.8773L22.6594 18.8402L22.6022 18.7475L22.6594 18.7104L22.6022 18.6178L22.6594 18.5621L22.6213 18.4695L22.6784 18.4324L22.6403 18.3212L22.6975 18.2841L22.6784 18.1914L22.7166 18.1543V18.0616L22.7547 18.0246V17.9133L22.7928 17.8948V17.7836L22.8309 17.765V17.6538L22.869 17.6353V17.524L22.9071 17.5055V17.3943L22.9453 17.3758V17.2831L22.9834 17.246V17.1533L23.0215 17.1162L23.0406 17.0235L23.0787 16.9865V16.8938L23.1168 16.8567V16.764L23.1549 16.7269V16.6343L23.193 16.6157V16.5045L23.2502 16.486L23.2311 16.3747L23.2883 16.3562V16.245L23.3455 16.2264L23.3264 16.0967H23.3836L23.3646 15.9669H23.4408L23.4217 15.8372H23.498L23.4598 15.7074H23.5551L23.517 15.5776H23.6123L23.5742 15.4293L23.6886 15.4664L23.6504 15.2996L23.7838 15.3366L23.7457 15.1513L23.8791 15.2254V15.003L24.0126 15.0957V14.8917L24.1269 15.003V14.7991L24.2413 14.9103L24.2603 14.7064L24.3556 14.8361L24.3747 14.6137L24.489 14.762V14.521L24.6034 14.6878L24.6224 14.4469L24.7368 14.6322V14.3727L24.8511 14.5581L24.8702 14.2986L24.9846 14.5025L25.0036 14.2244L25.118 14.4469V14.1688L25.2514 14.3912V14.1132L25.3848 14.3542V14.0576L25.4991 14.3171L25.5182 14.0205L25.6326 14.2615L25.6516 13.9834L25.766 14.2244L25.785 13.9463L25.9184 14.2059L25.9375 13.9278L26.0518 14.1688L26.0709 13.8907L26.1853 14.1317L26.2043 13.8722L26.3187 14.1132L26.3377 13.8537L26.4521 14.0946L26.4902 13.8351L26.5855 14.0576L26.6236 13.8166L26.7189 14.039L26.757 13.798L26.8523 14.0205L26.9095 13.7795L27.0048 14.002L27.0429 13.7795L27.1382 13.9834L27.1763 13.761L27.2716 13.9649L27.3288 13.7424L27.405 13.9463L27.4622 13.7239L27.5384 13.9278L27.6147 13.7239L27.6909 13.9093L27.7481 13.7054L27.8243 13.8907L27.9006 13.6868L27.9577 13.8722L28.034 13.6868L28.1102 13.8722L28.2055 13.6683L28.2627 13.8722L28.377 13.6683L28.4151 13.8537L28.5295 13.6683L28.5485 13.8537L28.6629 13.6683L28.701 13.8537L28.8154 13.6683L28.8344 13.8537L28.9488 13.6683L28.9678 13.8722L29.1013 13.6683L29.1203 13.8722L29.2347 13.6868L29.2537 13.8907L29.3871 13.6868V13.8907L29.5206 13.7054L29.5396 13.9093L29.673 13.7054V13.9463L29.8446 13.7424L29.8255 13.9649L29.978 13.761V14.002L30.1304 13.798L30.1114 14.0205L30.2829 13.8351L30.2638 14.0576L30.4354 13.8722L30.3973 14.0946L30.5688 13.9093L30.5497 14.1317L30.7213 13.9463L30.6831 14.1873L30.8737 13.9834L30.8166 14.2244L31.0262 14.0205L30.969 14.28L31.1787 14.0576L31.1024 14.3171L31.3311 14.1132L31.2358 14.3727L31.4836 14.1688L31.3883 14.4283L31.6361 14.2244L31.5217 14.5025L31.7885 14.28L31.6551 14.5581L31.922 14.3542L31.7885 14.6322L32.0554 14.4283L31.922 14.7064L32.1888 14.5025L32.0363 14.7805L32.3222 14.5952L32.1507 14.8732L32.4556 14.6878L32.265 14.9659L32.57 14.7991L32.3794 15.0586L32.6843 14.9103L32.4747 15.1883L32.7987 15.04L32.5509 15.3366L32.9321 15.2254L32.6653 15.4664L33.0274 15.3923L32.7606 15.5962L33.1036 15.5406L32.8368 15.7259L33.1417 15.6889L32.894 15.8557L33.1989 15.8372L32.9511 15.9855H33.237L32.9893 16.1152L33.2561 16.1338L33.0464 16.245L33.2942 16.2635L33.0845 16.3747L33.3133 16.4118L33.1036 16.523L33.3514 16.5416L33.1417 16.6528L33.3704 16.6713L33.1798 16.7826L33.4086 16.8196L33.218 16.9123L33.4467 16.9494L33.2561 17.0421L33.4657 17.0792L33.2942 17.1718L33.5038 17.2089L33.3323 17.3016L33.542 17.3387L33.3704 17.4314L33.5801 17.4684L33.3895 17.5611L33.6373 17.5982L33.4276 17.6723L33.6754 17.728L33.4657 17.8021L33.7135 17.8577L33.5038 17.9319L33.7516 17.9875L33.542 18.0616L33.7897 18.1172L33.5801 18.2099L33.8278 18.247L33.5991 18.3397L33.866 18.3953L33.6373 18.4695L33.9041 18.5251L33.6563 18.5992L33.9231 18.6548L33.6754 18.729L33.9422 18.8031L33.6944 18.8773L33.9613 18.9514L33.6944 19.007L33.9613 19.0997L33.6944 19.1553L33.9613 19.2666L33.6754 19.3036L33.9422 19.4519L33.6563 19.4705L33.885 19.6373H33.6373L33.8469 19.7856L33.5991 19.7671L33.7897 19.9154H33.561L33.7516 20.0637L33.5229 20.0451L33.6944 20.1934L33.4848 20.1749L33.6373 20.3232L33.4276 20.3046L33.5801 20.4529L33.3895 20.4344L33.542 20.5827L33.3514 20.5642L33.4848 20.7125L33.2942 20.6939L33.4276 20.8422L33.2561 20.8237L33.3895 20.972L33.1989 20.9535L33.3323 21.1018L33.1608 21.0832L33.2942 21.2315L33.1036 21.213L33.237 21.3613L33.0655 21.3427L33.1989 21.491L33.0083 21.4725L33.1608 21.6393L32.9702 21.6023L33.1036 21.7691L32.913 21.732L33.0655 21.8989L32.8558 21.8618L33.0083 22.0472L32.7987 21.9915L32.9511 22.1769L32.7415 22.1213L32.894 22.3252L32.6653 22.2511L32.8177 22.455L32.589 22.3623L32.7415 22.6033L32.4937 22.492L32.6462 22.7516L32.3984 22.6033L32.5128 22.8999L32.2841 22.733L32.3794 23.0296L32.1697 22.8628L32.246 23.1409L32.0554 22.9555L32.1125 23.2521L31.922 23.0482L31.9791 23.3448L31.8076 23.1409L31.8457 23.4189L31.6742 23.215L31.7123 23.5116L31.5408 23.2892L31.5789 23.5858L31.4264 23.3448L31.4455 23.6414L31.293 23.4189L31.3121 23.7155L31.1596 23.4745V23.7711L31.0262 23.5301V23.8267L30.8928 23.5858V23.8823L30.7594 23.6414V23.938L30.626 23.6784V23.9936L30.4925 23.734L30.4735 24.0306L30.3591 23.7711L30.3401 24.0677L30.2257 23.8082L30.2067 24.1048L30.0923 23.8453L30.0733 24.1419L29.9589 23.9194V24.1789L29.8064 23.8823L29.7874 24.216L29.6349 23.9009L29.5777 24.2531L29.4824 23.9565L29.4062 24.2716L29.33 23.9936L29.2537 24.2716L29.1966 24.0121L29.1013 24.2716L29.0441 24.0121L28.9488 24.2716L28.9107 24.0121L28.8154 24.2716L28.7582 24.0121L28.6629 24.2716L28.6248 24.0121L28.5104 24.2716L28.4723 24.0121L28.377 24.2531L28.3389 24.0121L28.2436 24.2531L28.2055 24.0121L28.0911 24.2531L28.053 24.0121L27.9577 24.2531L27.9196 24.0121L27.8053 24.2531L27.7862 24.0121L27.6718 24.2716L27.6337 24.0121L27.5194 24.2716L27.5003 24.0121L27.386 24.2716L27.3669 23.9936L27.2335 24.2716L27.2144 23.9936L27.1001 24.2716L27.081 23.9936L26.9476 24.2716V23.975L26.8142 24.2531L26.7951 23.975L26.6617 24.2531V23.9565L26.5283 24.2346V23.938L26.3758 24.1975V23.9194L26.2424 24.1789V23.8823L26.109 24.1419V23.8638L25.9566 24.1233L25.9756 23.8267L25.8231 24.0677V23.7897L25.6707 24.0306L25.6897 23.7526L25.5373 23.975L25.5563 23.7155L25.4038 23.9194L25.4229 23.6599L25.2514 23.8638L25.2895 23.6043L25.0989 23.8082L25.137 23.5487L24.9655 23.734L25.0036 23.4745L24.813 23.6414L24.8702 23.3818L24.6415 23.5487L24.7177 23.3262L24.5271 23.4375V23.4004L24.5081 23.4189L24.5843 23.215L24.3937 23.3262ZM28.2246 18.8958L28.5867 18.8587L28.2436 18.766L28.5867 18.729L28.2627 18.6548L28.6057 18.5992L28.2817 18.5251L28.6057 18.4695L28.2817 18.4138L28.5867 18.3582L28.2817 18.3026L28.5676 18.247L28.2436 18.1914L28.5295 18.1172L28.2246 18.0987L28.4914 18.0246L28.2055 18.006L28.4533 17.9133H28.1864L28.4533 17.8021L28.1483 17.8206L28.377 17.7094L28.1293 17.7465L28.2817 17.6538L28.1102 17.6909L28.1864 17.6538L28.1102 17.6723L28.1674 17.6167L28.1102 17.6538L28.1864 17.5426V17.524L28.0721 17.6167L28.2246 17.3387L28.2436 17.2831L28.0721 17.524L28.053 17.5611V17.5426L28.0149 17.5982V17.487L27.9387 17.3016V17.5055V17.5611V17.5797L27.9006 17.524L27.7862 17.4314L27.8815 17.5982L27.8624 17.5797V17.5982L27.5575 17.487L27.7862 17.765L27.5575 17.7094L27.7481 17.8577L27.5384 17.8206L27.729 17.9319L27.5003 17.9133L27.6909 18.0246H27.4622L27.6718 18.1358H27.4431L27.6528 18.247H27.405L27.6528 18.3582L27.386 18.3768L27.6337 18.4695L27.3669 18.5065L27.6147 18.5992L27.3669 18.6178L27.5956 18.729L27.3478 18.766L27.5766 18.8587L27.3288 18.8958L27.5766 18.9885L27.3288 19.0441L27.5575 19.1368L27.3097 19.1739L27.5384 19.2666L27.3097 19.3222L27.5384 19.3963L27.3097 19.4519L27.5384 19.5261L27.3097 19.5817L27.5384 19.6558L27.3288 19.73L27.5384 19.7856L27.3288 19.8598L27.5384 19.9339L27.3669 19.9895L27.5575 20.0451L27.405 20.1193L27.5766 20.1563L27.4431 20.2305H27.6147L27.5003 20.3232L27.6528 20.3046L27.5384 20.3973L27.6909 20.3788L27.6718 20.4159L27.71 20.3973L27.6147 20.6012L27.8815 20.49L27.8624 20.5642L27.9196 20.5271V20.6754L28.034 20.5086L28.0721 20.6754L28.1483 20.5086L28.1674 20.5456V20.4715L28.3198 20.6754L28.3389 20.4159L28.3198 20.3603L28.4533 20.4344L28.358 20.2861L28.4914 20.3417L28.377 20.212L28.5485 20.249L28.3961 20.1193L28.5676 20.1563L28.4151 20.0266L28.5867 20.0451L28.3961 19.9339H28.6057L28.3961 19.8227H28.6248L28.377 19.7115H28.6248L28.358 19.6002L28.6248 19.5817L28.3389 19.4705L28.6248 19.4519L28.3008 19.3407L28.6248 19.3222L28.2817 19.2109L28.6057 19.1924L28.2436 19.0812L28.358 19.0626L28.2055 19.0441L28.6057 19.007L28.2246 18.8958ZM34.7541 20.9535L34.9257 20.9164L34.716 20.8052L34.9066 20.7866L34.6779 20.6754L34.8875 20.6383L34.6398 20.5456L34.8685 20.5086L34.6017 20.4159L34.8494 20.3788L34.6017 20.2861L34.8494 20.249L34.6017 20.1563L34.8494 20.1193L34.6017 20.0266L34.8494 19.9895L34.6017 19.8968L34.8494 19.8598L34.6017 19.7671L34.8494 19.73L34.6017 19.6373L34.8494 19.6002L34.6017 19.5075L34.8685 19.4705L34.6207 19.3778L34.8685 19.3222L34.6207 19.2295L34.8685 19.1924L34.6207 19.0997L34.8685 19.0626L34.6207 18.97L34.8685 18.9329L34.6207 18.8402L34.8685 18.8031L34.6398 18.7104L34.8685 18.6734L34.6398 18.5807L34.8685 18.5436L34.6398 18.4509L34.8685 18.4138L34.6398 18.3212L34.8685 18.2841L34.6398 18.1914L34.8875 18.1543L34.6398 18.0616L34.8875 18.0246L34.6398 17.9319L34.8875 17.8948L34.6398 17.8021L34.8875 17.765L34.6588 17.6723L34.8875 17.6167L34.6588 17.524L34.8875 17.487L34.6588 17.3943L34.8875 17.3572L34.6588 17.2645L34.8875 17.2275L34.6588 17.1348L34.8875 17.0977L34.6588 17.005L34.8875 16.9679L34.6588 16.8752L34.8875 16.8382L34.6588 16.7455L34.8875 16.7084L34.6398 16.6157L34.8875 16.5786L34.6398 16.486L34.8685 16.4489L34.6398 16.3562L34.8685 16.3191L34.6398 16.2264L34.8685 16.1894L34.6207 16.0967L34.8685 16.0411L34.6207 15.9484L34.8685 15.9113L34.6207 15.8186L34.8494 15.7815L34.6017 15.6889L34.8494 15.6518L34.6017 15.5591L34.8494 15.522L34.6017 15.4293L34.8494 15.3923L34.5826 15.2996L34.8494 15.2625L34.5826 15.1698L34.8494 15.1327L34.5826 15.04L34.8494 15.003L34.5826 14.9103L34.8304 14.8732L34.5826 14.7805L34.8304 14.7435L34.5636 14.6508L34.8304 14.6137L34.5636 14.521L34.8304 14.4839L34.5636 14.3727L34.8304 14.3356L34.5636 14.2429L34.8304 14.2059L34.5636 14.1132L34.8494 14.0761L34.5445 13.9649L34.8304 13.9278L34.5445 13.8351L34.8304 13.798L34.5445 13.7054L34.8304 13.6683L34.5445 13.5756L34.8304 13.5385L34.5445 13.4458L34.8304 13.4088L34.5445 13.3161L34.8304 13.2605L34.5636 13.1678L34.8304 13.1307L34.5636 13.038L34.8304 13.0009L34.5636 12.9083L34.8304 12.8712L34.5636 12.7785L34.8494 12.7414L34.5826 12.6302L34.8494 12.5931L34.5826 12.5004L34.8494 12.4634L34.6017 12.3707L34.8685 12.3336L34.6017 12.2409L34.8685 12.2038L34.6207 12.0926L34.8875 12.0555L34.6207 11.9443L34.9066 11.9072L34.6398 11.796L34.9257 11.7775L34.6779 11.6292H34.9638L34.716 11.4623L34.9828 11.4809L34.7541 11.314L35.1163 11.3326L34.8685 11.0175L35.2115 11.1101L35.04 10.795L35.364 10.9804L35.3068 10.5355L35.5737 10.7765L35.6308 10.3872L35.7643 10.6096L35.8024 10.313L35.9167 10.554L35.9739 10.276L36.0692 10.5169L36.1454 10.2389L36.2217 10.4799L36.2979 10.2203L36.3741 10.4613L36.4504 10.1833L36.5075 10.4243L36.6028 10.1833L36.66 10.4243L36.7553 10.1647L36.8125 10.4057L36.9078 10.1462L36.9459 10.3872L37.0412 10.1277L37.0984 10.3872L37.1937 10.1091L37.2318 10.3686L37.3271 10.0906L37.3843 10.3686L37.4796 10.072L37.5177 10.3501L37.632 10.0535L37.6701 10.3501L37.7845 10.0535L37.8226 10.3501L37.956 10.035L37.9751 10.3501L38.1085 10.035L38.1275 10.3686L38.261 10.035L38.28 10.3872L38.4325 10.0535V10.4057L38.6231 10.072L38.585 10.4613L38.8137 10.1091L38.7374 10.5169L39.0424 10.1647L38.8899 10.6652L39.3473 10.3316L39.0805 10.7394L39.557 10.5169L39.1948 10.9062L39.8047 10.7765L39.3664 11.1472L39.9763 11.0916L39.557 11.2955H40.0525L39.6332 11.4438L40.1097 11.4809L39.6523 11.6106L40.1478 11.6848L39.6904 11.7775L40.1859 11.8702L39.7285 11.9443L40.205 12.0555L39.7666 12.1112L40.224 12.2224L39.7857 12.2595L40.224 12.3892L39.8238 12.4077L40.2431 12.519L39.8428 12.556L40.2621 12.6673L39.8238 12.7043L40.2812 12.8156L39.8619 12.8526L40.2812 12.9453L39.8619 12.9824L40.3003 13.0751L39.8619 13.1122L40.3193 13.2234L39.881 13.2605L40.3193 13.3532L39.881 13.3902L40.3384 13.4829L39.9 13.52L40.3384 13.6312L39.9 13.6683L40.3574 13.761L39.9 13.798L40.3574 13.8907L39.9 13.9278L40.3574 14.039L39.9 14.0761L40.3765 14.1688L39.9 14.2059L40.3765 14.2986L39.9 14.3356L40.3765 14.4469L39.881 14.4839L40.3765 14.5766L39.9191 14.6322L40.3765 14.7249L39.9191 14.762L40.3765 14.8547L39.9191 14.8917L40.3574 14.9844L39.9 15.0215L40.3574 15.1142L39.9 15.1513L40.3574 15.244L39.9 15.281L40.3384 15.3737L39.9 15.4108L40.3384 15.5035L39.881 15.5406L40.3193 15.6332L39.881 15.6703L40.3193 15.763L39.881 15.8001L40.3003 15.8928L39.8619 15.9484L40.2812 16.0411L39.8619 16.0781L40.2812 16.1708L39.8619 16.2079L40.2621 16.3006L39.8428 16.3377L40.2431 16.4303L39.8428 16.4674L40.2431 16.5601L39.8238 16.5972L40.224 16.6899L39.8238 16.7269L40.224 16.8196L39.8238 16.8567L40.205 16.9494L39.8047 16.9865L40.1859 17.0792L39.8047 17.1162L40.1859 17.2089L39.8047 17.246L40.1668 17.3387L39.8047 17.3943L40.1668 17.487L39.7857 17.524L40.1478 17.6167L39.7857 17.6538L40.1478 17.7465L39.7857 17.7836L40.1478 17.8763L39.7857 17.9133L40.1287 18.006L39.7666 18.0431L40.1287 18.1358L39.7666 18.1729L40.1097 18.2655L39.7666 18.3026L40.1097 18.3953L39.7666 18.4324L40.1097 18.5251L39.7475 18.5621L40.0906 18.6548L39.7475 18.6919L40.0906 18.7846L39.7475 18.8402L40.0715 18.9329L39.7285 18.97L40.0715 19.0626L39.7285 19.0997L40.0525 19.1924L39.7285 19.2295L40.0334 19.3222L39.7094 19.3592L40.0144 19.4519L39.7094 19.489L39.9953 19.5817L39.6904 19.6188L39.9953 19.7115L39.6904 19.7485L39.9763 19.8412L39.6713 19.8783L39.9381 19.971L39.6332 20.0266L39.9191 20.1193L39.6332 20.1749L39.9 20.2676L39.6332 20.3046L39.881 20.3973L39.6141 20.4344L39.8619 20.5456L39.5951 20.5827L39.8428 20.6754L39.5951 20.7125L39.8238 20.8052L39.576 20.8608L39.8047 20.9535L39.576 20.9905L39.7857 21.0832L39.557 21.1388L39.7666 21.2315L39.557 21.2686L39.7666 21.3613L39.557 21.3983L39.7666 21.5096L39.557 21.5466L39.7475 21.6393L39.5379 21.6764L39.7475 21.7876L39.5379 21.8247L39.7475 21.9174L39.5379 21.9545L39.7475 22.0657L39.5379 22.1028L39.7475 22.214L39.5188 22.2511L39.7285 22.3623L39.5188 22.3994L39.7285 22.5291L39.4998 22.5477L39.6904 22.696H39.4617L39.6523 22.8628L39.4235 22.8443L39.5951 23.0111L39.3283 22.9926L39.4998 23.2706L39.2139 23.1965L39.3092 23.4931L39.0995 23.3633L39.1186 23.6228L38.9471 23.4745L38.928 23.7155L38.7755 23.5487L38.7184 23.7711L38.604 23.6043L38.5278 23.8082L38.4325 23.6414L38.3372 23.8082L38.261 23.6599L38.1657 23.8082L38.1085 23.6599L37.9941 23.7897L37.937 23.6599L37.8417 23.7711L37.7845 23.6414L37.6892 23.734L37.632 23.6414L37.5367 23.7155L37.4986 23.6228L37.4033 23.697L37.3652 23.6228L37.2699 23.6784L37.2127 23.6043L37.1365 23.6414L37.0793 23.5858L36.984 23.6414L36.9268 23.5858L36.8506 23.6228L36.7934 23.5858L36.6981 23.6043L36.66 23.5672L36.5647 23.6043L36.5266 23.5672L36.4313 23.5858L36.3932 23.5672L36.2788 23.5858L36.2598 23.5487L36.1454 23.5672L36.1073 23.5301L36.012 23.5487L35.9739 23.5116L35.8595 23.5301L35.8405 23.4745L35.7261 23.4931L35.7071 23.4375H35.5737V23.3633H35.4403V23.2706L35.3068 23.2521L35.345 23.1779L35.1925 23.1223L35.2687 23.0482L35.1163 22.9555L35.1925 22.8813L35.0591 22.7701L35.1353 22.7145L35.021 22.6033L35.1163 22.5477L34.9828 22.4364L35.0972 22.3808L34.9638 22.2881L35.0781 22.2325L34.9638 22.1398L35.0591 22.1028L34.9447 21.9915L35.0591 21.9545L34.9257 21.8432L35.04 21.8062L34.9066 21.6949L35.021 21.6579L34.8875 21.5652L35.021 21.5281L34.8685 21.4169L35.0019 21.3798L34.8494 21.2871L34.9828 21.25L34.8113 21.1388L34.8875 21.1203L34.7923 21.0832L34.9638 21.0461L34.7541 20.9535Z" fill="#007AFF"/>
<path d="M20.536 17.7591L20.5487 17.8147L20.5868 17.7468L20.5931 17.8086L20.6313 17.7344L20.644 17.8024L20.6757 17.7221L20.6884 17.7962L20.7202 17.7097L20.7329 17.79L20.7647 17.7097L20.7774 17.79L20.8091 17.7097L20.8219 17.79L20.8536 17.7097L20.8663 17.79L20.8981 17.7097L20.9108 17.79L20.9426 17.7097L20.9553 17.79L20.987 17.7097L20.9997 17.79L21.0315 17.7097L21.0442 17.7962L21.076 17.7159L21.095 17.7962L21.1268 17.7159L21.1395 17.7962L21.1713 17.7159L21.184 17.7962L21.2157 17.7159L21.2284 17.7962L21.2602 17.7159L21.2729 17.7962L21.3047 17.7221L21.3174 17.7962L21.3491 17.7221L21.3619 17.7962L21.3936 17.7221L21.4063 17.7962L21.4381 17.7221L21.4508 17.7962L21.4826 17.7221L21.4953 17.8024L21.527 17.7221L21.5397 17.8024L21.5715 17.7221L21.5842 17.8024L21.616 17.7221L21.6287 17.8024L21.6604 17.7282L21.6795 17.8024L21.7113 17.7282L21.724 17.8024L21.7557 17.7282L21.7684 17.8024L21.8002 17.7282L21.8129 17.8024L21.8447 17.7282L21.8574 17.8024L21.8891 17.7282L21.9019 17.8024L21.9336 17.7282L21.9463 17.8024L21.9781 17.7282L21.9908 17.8024L22.0226 17.7221L22.0353 17.8024L22.067 17.7221L22.0797 17.7962L22.1115 17.7221L22.1242 17.7962L22.156 17.7221L22.1687 17.7962L22.2004 17.7159L22.2195 17.7962L22.2513 17.7159L22.264 17.7962L22.2957 17.7159L22.3084 17.79L22.3402 17.7097L22.3529 17.79L22.3847 17.7097L22.3974 17.79L22.4291 17.7097L22.4419 17.79L22.4736 17.7035L22.4863 17.79L22.5181 17.7035L22.5308 17.79L22.5626 17.7035L22.5753 17.79L22.607 17.7035L22.6197 17.7838L22.6515 17.7035L22.6642 17.7838L22.696 17.6973L22.7087 17.7838L22.7404 17.6973L22.7531 17.7838L22.7913 17.6973L22.804 17.7838L22.8357 17.6973L22.8484 17.7838L22.8802 17.6973L22.8929 17.79L22.931 17.6912L22.9437 17.7838L22.9755 17.6912L22.9882 17.7838L23.02 17.6912L23.0327 17.7838L23.0644 17.6912L23.0771 17.7838L23.1089 17.6912L23.1216 17.7838L23.1534 17.6912L23.1724 17.7838L23.2042 17.6973L23.2169 17.7838L23.2487 17.6973L23.2614 17.7838L23.2931 17.6973L23.3059 17.7838L23.3376 17.6973L23.3503 17.79L23.3884 17.7035L23.4011 17.79L23.4329 17.7035L23.4456 17.79L23.4774 17.7097L23.4901 17.7962L23.5219 17.7097L23.5346 17.7962L23.5727 17.7159L23.5854 17.8024L23.6235 17.7159L23.6362 17.8086L23.6743 17.7221L23.6807 17.8147L23.7315 17.7344V17.8271L23.7887 17.7468L23.7823 17.8333L23.8395 17.7591L23.8331 17.8765L23.9411 17.7962L23.9094 17.9074L24.0174 17.8518L23.9539 17.9569L24.1063 17.9383L24.0237 18.0248L24.1571 18.0434L24.0809 18.0866L24.1826 18.099L24.1 18.1361L24.1953 18.1546L24.1127 18.1855L24.208 18.2102L24.1254 18.2349L24.2143 18.2596L24.1317 18.2844L24.227 18.3091L24.1444 18.3276L24.227 18.3585L24.1444 18.377L24.2334 18.4079L24.1508 18.4265L24.2397 18.4574L24.1571 18.4697L24.2461 18.5006L24.1571 18.5192L24.2524 18.5501L24.1635 18.5624L24.2588 18.5933L24.1635 18.6118L24.2651 18.6427L24.1699 18.6551L24.2715 18.6922L24.1699 18.7045L24.2715 18.7416L24.1699 18.754L24.2779 18.7972L24.1699 18.8034L24.2779 18.8467L24.1635 18.8528L24.2779 18.8961L24.1571 18.9023L24.2715 18.9517H24.1508L24.2651 19.0135L24.1317 19.0011L24.2524 19.0753L24.1127 19.0506L24.2334 19.1494L24.0619 19.1L24.1762 19.2483L24.0364 19.1618L24.1127 19.3163L23.9793 19.1989L24.0237 19.3966L23.8967 19.2545L23.9157 19.4522L23.8459 19.3163V19.4769L23.795 19.341L23.7823 19.4955L23.7379 19.3472L23.7124 19.5078L23.6807 19.3595L23.6489 19.5202L23.6235 19.3719L23.5854 19.5264L23.5663 19.3842L23.5282 19.5325L23.5155 19.3904L23.471 19.5325L23.4647 19.4028L23.4266 19.5387L23.4139 19.409L23.3757 19.5449L23.363 19.4028L23.3249 19.5511L23.3122 19.4151L23.2804 19.5511L23.2677 19.4151L23.236 19.5573L23.2233 19.4151L23.1851 19.5634L23.1724 19.4213L23.1407 19.5634L23.128 19.4213L23.0962 19.5696L23.0835 19.4275L23.0454 19.5696L23.0327 19.4275L23.0009 19.5758L22.9882 19.4275L22.9564 19.5758L22.9437 19.4275L22.9056 19.5758L22.8929 19.4275L22.8611 19.582L22.8484 19.4275L22.8167 19.582L22.804 19.4275L22.7659 19.582L22.7531 19.4213L22.7214 19.582L22.7023 19.4337L22.6706 19.582L22.6579 19.4337L22.6261 19.582L22.6134 19.4337L22.5816 19.5758L22.5689 19.4275L22.5371 19.5758L22.5244 19.4275L22.4927 19.5758L22.48 19.4275L22.4482 19.5696L22.4355 19.4275L22.4037 19.5696L22.391 19.4213L22.3593 19.5634L22.3466 19.4213L22.3148 19.5634L22.3021 19.4213L22.2703 19.5573L22.2513 19.4151L22.2195 19.5511L22.2068 19.4151L22.175 19.5511L22.1623 19.4151L22.1306 19.5449L22.1179 19.409L22.0861 19.5387L22.0734 19.409L22.0416 19.5387L22.0289 19.4028L21.9971 19.5325L21.9844 19.4028L21.9527 19.5325L21.94 19.4028L21.9082 19.5264L21.8955 19.3966L21.8637 19.5202L21.851 19.3966L21.8193 19.5202L21.8066 19.3966L21.7748 19.514L21.7557 19.3966L21.724 19.514L21.7113 19.3904L21.6795 19.5078L21.6668 19.3904L21.635 19.5078L21.6223 19.3904L21.5906 19.5078L21.5779 19.3904L21.5461 19.5016L21.5334 19.3842L21.5016 19.5016L21.4889 19.3842L21.4571 19.4955L21.4444 19.3842L21.4127 19.4955L21.4 19.3842L21.3682 19.4955L21.3555 19.3781L21.3237 19.4893L21.311 19.3781L21.2793 19.4893L21.2602 19.3781L21.2284 19.4831L21.2157 19.3719L21.184 19.4831L21.1713 19.3719L21.1395 19.4769L21.1268 19.3719L21.095 19.4707L21.0823 19.3657L21.0506 19.4646L21.0379 19.3657L21.0061 19.4584L20.9934 19.3595L20.9616 19.4584L20.9489 19.3595L20.9171 19.4522L20.9044 19.3533L20.8727 19.4398L20.8536 19.341L20.8219 19.4337L20.8028 19.341L20.771 19.4275L20.7583 19.341L20.7266 19.4213L20.7139 19.3348L20.6757 19.4151L20.663 19.3286L20.6313 19.409L20.6186 19.3286L20.5868 19.4028L20.5677 19.3224L20.536 19.3966L20.5233 19.3224L20.4915 19.3904L20.4724 19.3163L20.4407 19.3842L20.428 19.3163L20.3962 19.3842L20.3835 19.3163L20.3454 19.3842L20.3327 19.3163L20.3009 19.3781L20.2882 19.3101L20.2501 19.3781L20.2374 19.3101L20.2056 19.3781L20.1929 19.3101L20.1548 19.3781L20.1421 19.3101L20.104 19.3781L20.0913 19.3039L20.0531 19.3719L20.0404 19.3039L19.996 19.3719L19.9896 19.2977L19.9388 19.3595V19.2854L19.8816 19.3472L19.888 19.273L19.8308 19.3286L19.8371 19.2421L19.7419 19.2977L19.7673 19.205L19.6656 19.2359L19.7101 19.168L19.6211 19.1741L19.672 19.1185L19.5894 19.1124L19.6466 19.0629L19.5703 19.0444L19.6275 19.0073L19.5576 18.9826L19.6148 18.9517L19.5576 18.9208L19.6084 18.8961L19.5576 18.8652L19.6084 18.8467L19.564 18.8096L19.6084 18.791L19.5703 18.7601L19.6148 18.7416L19.583 18.7107L19.6148 18.6922L19.5894 18.6613L19.6211 18.6489L19.5957 18.618L19.6211 18.6057L19.6021 18.5748L19.6275 18.5562L19.6148 18.5315L19.6339 18.513L19.6148 18.4821L19.6339 18.4636L19.6211 18.4388L19.6339 18.4203L19.6275 18.3894L19.6402 18.377L19.6275 18.3461L19.6402 18.3338L19.6339 18.3029L19.6402 18.2905L19.6339 18.2535L19.6466 18.2473L19.6402 18.2102L19.6529 18.1978L19.6466 18.167L19.6593 18.1546L19.6529 18.1175L19.672 18.1113L19.6656 18.0743L19.6847 18.0681V18.0248H19.7101V17.9816H19.7419L19.7482 17.9383L19.7736 17.9507L19.7927 17.9013L19.8181 17.926L19.8499 17.8765L19.8753 17.9013L19.9134 17.858L19.9324 17.8827L19.9706 17.8456L19.9896 17.8765L20.0277 17.8333L20.0468 17.8704L20.0786 17.8271L20.0976 17.8642L20.1294 17.8271L20.1421 17.858L20.1802 17.8209L20.1929 17.858L20.231 17.8147L20.2437 17.8518L20.2819 17.8086L20.2946 17.8456L20.3263 17.8024L20.339 17.8456L20.3771 17.7962L20.3899 17.8395L20.4216 17.79L20.4343 17.8333L20.4724 17.7777L20.4788 17.8024L20.4915 17.7715L20.5042 17.8271L20.536 17.7591Z" fill="#007AFF"/>
<path d="M19.7329 13.8919L19.7633 14.0247L19.8543 13.8623L19.8695 14.01L19.9606 13.8328L19.9909 13.9952L20.0668 13.8033L20.0972 13.9804L20.173 13.7738L20.2034 13.9657L20.2793 13.7738L20.3096 13.9657L20.3855 13.7738L20.4159 13.9657L20.4918 13.7738L20.5221 13.9657L20.598 13.7738L20.6283 13.9657L20.7042 13.7738L20.7346 13.9657L20.8105 13.7738L20.8408 13.9657L20.9167 13.7738L20.947 13.9804L21.0229 13.7885L21.0685 13.9804L21.1443 13.7885L21.1747 13.9804L21.2506 13.7885L21.2809 13.9804L21.3568 13.7885L21.3872 13.9804L21.463 13.7885L21.4934 13.9804L21.5693 13.8033L21.5996 13.9804L21.6755 13.8033L21.7059 13.9804L21.7818 13.8033L21.8121 13.9804L21.888 13.8033L21.9183 13.9804L21.9942 13.8033L22.0246 13.9952L22.1005 13.8033L22.1308 13.9952L22.2067 13.8033L22.237 13.9952L22.3129 13.8033L22.3433 13.9952L22.4192 13.8181L22.4647 13.9952L22.5406 13.8181L22.5709 13.9952L22.6468 13.8181L22.6772 13.9952L22.753 13.8181L22.7834 13.9952L22.8593 13.8181L22.8896 13.9952L22.9655 13.8181L22.9959 13.9952L23.0718 13.8181L23.1021 13.9952L23.178 13.8181L23.2083 13.9952L23.2842 13.8033L23.3146 13.9952L23.3905 13.8033L23.4208 13.9804L23.4967 13.8033L23.527 13.9804L23.6029 13.8033L23.6333 13.9804L23.7092 13.7885L23.7547 13.9804L23.8306 13.7885L23.8609 13.9804L23.9368 13.7885L23.9672 13.9657L24.043 13.7738L24.0734 13.9657L24.1493 13.7738L24.1796 13.9657L24.2555 13.7738L24.2859 13.9657L24.3618 13.759L24.3921 13.9657L24.468 13.759L24.4983 13.9657L24.5742 13.759L24.6046 13.9657L24.6805 13.759L24.7108 13.9509L24.7867 13.759L24.817 13.9509L24.8929 13.7443L24.9233 13.9509L24.9992 13.7443L25.0295 13.9509L25.1206 13.7443L25.1509 13.9509L25.2268 13.7443L25.2572 13.9509L25.333 13.7443L25.3634 13.9657L25.4545 13.7295L25.4848 13.9509L25.5607 13.7295L25.591 13.9509L25.6669 13.7295L25.6973 13.9509L25.7732 13.7295L25.8035 13.9509L25.8794 13.7295L25.9098 13.9509L25.9856 13.7295L26.0312 13.9509L26.107 13.7443L26.1374 13.9509L26.2133 13.7443L26.2436 13.9509L26.3195 13.7443L26.3499 13.9509L26.4258 13.7443L26.4561 13.9657L26.5472 13.759L26.5775 13.9657L26.6534 13.759L26.6838 13.9657L26.7596 13.7738L26.79 13.9804L26.8659 13.7738L26.8962 13.9804L26.9873 13.7885L27.0176 13.9952L27.1087 13.7885L27.139 14.01L27.2301 13.8033L27.2453 14.0247L27.3667 13.8328V14.0542L27.5033 13.8623L27.4881 14.069L27.6247 13.8919L27.6095 14.1723L27.8675 13.9804L27.7916 14.2461L28.0496 14.1133L27.8979 14.3642L28.2621 14.3199L28.0648 14.5266L28.3835 14.5709L28.2014 14.6742L28.4442 14.7037L28.2469 14.7923L28.4746 14.8366L28.2773 14.9104L28.5049 14.9694L28.3076 15.0285L28.5201 15.0875L28.3228 15.1466L28.5505 15.2056L28.3532 15.2499L28.5505 15.3237L28.3532 15.368L28.5656 15.4418L28.3683 15.4861L28.5808 15.5599L28.3835 15.5894L28.596 15.6632L28.3835 15.7075L28.6112 15.7813L28.3987 15.8108L28.6263 15.8846L28.3987 15.9289L28.6415 16.0027L28.4139 16.0322L28.6567 16.1208L28.4139 16.1503L28.6567 16.2389L28.4139 16.2684L28.6719 16.3717L28.4139 16.3865L28.6719 16.4898L28.3987 16.5046L28.6719 16.6079L28.3835 16.6227L28.6567 16.7408H28.3683L28.6415 16.8884L28.3228 16.8589L28.6112 17.036L28.2773 16.977L28.5656 17.2131L28.1559 17.095L28.429 17.4493L28.0952 17.2427L28.2773 17.6117L27.9586 17.3312L28.0648 17.8036L27.7613 17.4641L27.8068 17.9364L27.6399 17.6117V17.9955L27.5185 17.6707L27.4881 18.0398L27.3819 17.6855L27.3212 18.0693L27.2453 17.715L27.1694 18.0988L27.1087 17.7445L27.0176 18.1136L26.9721 17.7741L26.881 18.1283L26.8507 17.7888L26.7445 18.1283L26.7293 17.8183L26.6382 18.1431L26.6079 17.8331L26.5168 18.1578L26.4865 17.8183L26.3954 18.1726L26.365 17.8479L26.2892 18.1726L26.2588 17.8479L26.1829 18.1874L26.1526 17.8479L26.0615 18.2021L26.0312 17.8626L25.9553 18.2021L25.9249 17.8626L25.849 18.2169L25.8187 17.8774L25.7276 18.2169L25.6973 17.8774L25.6214 18.2317L25.591 17.8774L25.5152 18.2317L25.4848 17.8774L25.3938 18.2317L25.3634 17.8774L25.2875 18.2464L25.2572 17.8774L25.1813 18.2464L25.1509 17.8774L25.0599 18.2464L25.0295 17.8626L24.9536 18.2464L24.9081 17.8921L24.8322 18.2464L24.8019 17.8921L24.726 18.2464L24.6956 17.8921L24.6198 18.2317L24.5894 17.8774L24.5135 18.2317L24.4832 17.8774L24.4073 18.2317L24.3769 17.8774L24.301 18.2169L24.2707 17.8774L24.1948 18.2169L24.1645 17.8626L24.0886 18.2021L24.0582 17.8626L23.9823 18.2021L23.952 17.8626L23.8761 18.1874L23.8306 17.8479L23.7547 18.1726L23.7243 17.8479L23.6485 18.1726L23.6181 17.8479L23.5422 18.1578L23.5119 17.8331L23.436 18.1431L23.4056 17.8331L23.3298 18.1431L23.2994 17.8183L23.2235 18.1283L23.1932 17.8183L23.1173 18.1283L23.0869 17.8183L23.011 18.1136L22.9807 17.8036L22.9048 18.0988L22.8745 17.8036L22.7986 18.0988L22.7682 17.8036L22.6923 18.084L22.6468 17.8036L22.5709 18.084L22.5406 17.7888L22.4647 18.0693L22.4343 17.7888L22.3585 18.0693L22.3281 17.7888L22.2522 18.0693L22.2219 17.7888L22.146 18.0545L22.1156 17.7741L22.0398 18.0545L22.0094 17.7741L21.9335 18.0398L21.9032 17.7741L21.8273 18.0398L21.7969 17.7741L21.721 18.0398L21.6907 17.7593L21.6148 18.025L21.5845 17.7593L21.5086 18.025L21.463 17.7593L21.3872 18.0102L21.3568 17.7445L21.2809 18.0102L21.2506 17.7445L21.1747 17.9955L21.1443 17.7445L21.0685 17.9807L21.0381 17.7298L20.9622 17.966L20.9319 17.7298L20.856 17.9512L20.8256 17.715L20.7498 17.9512L20.7194 17.715L20.6435 17.9364L20.6132 17.7003L20.5373 17.9069L20.4918 17.6707L20.4159 17.8921L20.3703 17.6707L20.2945 17.8774L20.2641 17.6707L20.1882 17.8626L20.1579 17.656L20.0668 17.8479L20.0365 17.6412L19.9606 17.8331L19.9302 17.6412L19.8543 17.8183L19.8088 17.6264L19.7329 17.8036L19.7026 17.6264L19.6267 17.7888L19.5812 17.6117L19.5053 17.7741L19.4749 17.6117L19.399 17.7741L19.3687 17.6117L19.2776 17.7741L19.2473 17.6117L19.1714 17.7593L19.141 17.5969L19.05 17.7593L19.0196 17.5969L18.9438 17.7593L18.9134 17.5969L18.8223 17.7593L18.792 17.5969L18.7009 17.7593L18.6706 17.5822L18.5795 17.7445L18.5492 17.5822L18.4429 17.7445L18.4278 17.5674L18.3063 17.715V17.5379L18.1698 17.6855L18.1849 17.5084L18.0483 17.6412L18.0635 17.4346L17.8359 17.5674L17.8966 17.346L17.6538 17.4198L17.76 17.2574L17.5475 17.2722L17.6689 17.1393L17.4716 17.1246L17.6082 17.0065L17.4261 16.9622L17.5627 16.8736L17.3958 16.8146L17.5323 16.7408L17.3958 16.667L17.5172 16.6079L17.3958 16.5341L17.5172 16.4898L17.4109 16.4013L17.5172 16.357L17.4261 16.2832L17.5323 16.2389L17.4565 16.1651L17.5323 16.1208L17.4716 16.047L17.5475 16.0175L17.4868 15.9437L17.5475 15.9141L17.502 15.8403L17.5627 15.7961L17.5323 15.737L17.5779 15.6927L17.5323 15.6189L17.5779 15.5746L17.5475 15.5156L17.5779 15.4713L17.5627 15.3975L17.593 15.368L17.5627 15.2942L17.593 15.2647L17.5779 15.1909L17.593 15.1613L17.5779 15.0728L17.6082 15.058L17.593 14.9694L17.6234 14.9399L17.6082 14.8661L17.6386 14.8366L17.6234 14.748L17.6689 14.7333L17.6538 14.6447L17.6993 14.6299V14.5266H17.76V14.4233H17.8359L17.851 14.3199L17.9118 14.3495L17.9573 14.2314L18.018 14.2904L18.0939 14.1723L18.1546 14.2314L18.2456 14.128L18.2912 14.1871L18.3822 14.0985L18.4278 14.1723L18.5188 14.069L18.5643 14.1576L18.6402 14.0542L18.6858 14.1428L18.7616 14.0542L18.792 14.128L18.883 14.0395L18.9134 14.128L19.0045 14.0247L19.0348 14.1133L19.1259 14.01L19.1562 14.0985L19.2321 13.9952L19.2625 14.0985L19.3535 13.9804L19.3839 14.0838L19.4598 13.9657L19.4901 14.069L19.5812 13.9361L19.5963 13.9952L19.6267 13.9214L19.657 14.0542L19.7329 13.8919Z" fill="#007AFF"/>
<path d="M17.2625 13.8919L17.2928 14.0247L17.3839 13.8623L17.3991 14.01L17.4901 13.8328L17.5205 13.9952L17.5964 13.8033L17.6267 13.9804L17.7026 13.7738L17.7329 13.9657L17.8088 13.7738L17.8392 13.9657L17.9151 13.7738L17.9454 13.9657L18.0213 13.7738L18.0516 13.9657L18.1275 13.7738L18.1579 13.9657L18.2338 13.7738L18.2641 13.9657L18.34 13.7738L18.3704 13.9657L18.4462 13.7738L18.4766 13.9804L18.5525 13.7885L18.598 13.9804L18.6739 13.7885L18.7042 13.9804L18.7801 13.7885L18.8105 13.9804L18.8864 13.7885L18.9167 13.9804L18.9926 13.7885L19.0229 13.9804L19.0988 13.8033L19.1292 13.9804L19.2051 13.8033L19.2354 13.9804L19.3113 13.8033L19.3416 13.9804L19.4175 13.8033L19.4479 13.9804L19.5238 13.8033L19.5541 13.9952L19.63 13.8033L19.6604 13.9952L19.7362 13.8033L19.7666 13.9952L19.8425 13.8033L19.8728 13.9952L19.9487 13.8181L19.9942 13.9952L20.0701 13.8181L20.1005 13.9952L20.1764 13.8181L20.2067 13.9952L20.2826 13.8181L20.3129 13.9952L20.3888 13.8181L20.4192 13.9952L20.4951 13.8181L20.5254 13.9952L20.6013 13.8181L20.6316 13.9952L20.7075 13.8181L20.7379 13.9952L20.8138 13.8033L20.8441 13.9952L20.92 13.8033L20.9504 13.9804L21.0262 13.8033L21.0566 13.9804L21.1325 13.8033L21.1628 13.9804L21.2387 13.7885L21.2842 13.9804L21.3601 13.7885L21.3905 13.9804L21.4664 13.7885L21.4967 13.9657L21.5726 13.7738L21.6029 13.9657L21.6788 13.7738L21.7092 13.9657L21.7851 13.7738L21.8154 13.9657L21.8913 13.759L21.9216 13.9657L21.9975 13.759L22.0279 13.9657L22.1038 13.759L22.1341 13.9657L22.21 13.759L22.2404 13.9509L22.3162 13.759L22.3466 13.9509L22.4225 13.7443L22.4528 13.9509L22.5287 13.7443L22.5591 13.9509L22.6501 13.7443L22.6805 13.9509L22.7564 13.7443L22.7867 13.9509L22.8626 13.7443L22.8929 13.9657L22.984 13.7295L23.0144 13.9509L23.0902 13.7295L23.1206 13.9509L23.1965 13.7295L23.2268 13.9509L23.3027 13.7295L23.3331 13.9509L23.4089 13.7295L23.4393 13.9509L23.5152 13.7295L23.5607 13.9509L23.6366 13.7443L23.6669 13.9509L23.7428 13.7443L23.7732 13.9509L23.8491 13.7443L23.8794 13.9509L23.9553 13.7443L23.9856 13.9657L24.0767 13.759L24.1071 13.9657L24.1829 13.759L24.2133 13.9657L24.2892 13.7738L24.3195 13.9804L24.3954 13.7738L24.4258 13.9804L24.5168 13.7885L24.5472 13.9952L24.6382 13.7885L24.6686 14.01L24.7596 13.8033L24.7748 14.0247L24.8962 13.8328V14.0542L25.0328 13.8623L25.0176 14.069L25.1542 13.8919L25.1391 14.1723L25.3971 13.9804L25.3212 14.2461L25.5792 14.1133L25.4274 14.3642L25.7916 14.3199L25.5944 14.5266L25.9131 14.5709L25.7309 14.6742L25.9738 14.7037L25.7765 14.7923L26.0041 14.8366L25.8068 14.9104L26.0345 14.9694L25.8372 15.0285L26.0496 15.0875L25.8524 15.1466L26.08 15.2056L25.8827 15.2499L26.08 15.3237L25.8827 15.368L26.0952 15.4418L25.8979 15.4861L26.1104 15.5599L25.9131 15.5894L26.1255 15.6632L25.9131 15.7075L26.1407 15.7813L25.9282 15.8108L26.1559 15.8846L25.9282 15.9289L26.1711 16.0027L25.9434 16.0322L26.1862 16.1208L25.9434 16.1503L26.1862 16.2389L25.9434 16.2684L26.2014 16.3717L25.9434 16.3865L26.2014 16.4898L25.9282 16.5046L26.2014 16.6079L25.9131 16.6227L26.1862 16.7408H25.8979L26.1711 16.8884L25.8524 16.8589L26.1407 17.036L25.8068 16.977L26.0952 17.2131L25.6854 17.095L25.9586 17.4493L25.6247 17.2427L25.8068 17.6117L25.4881 17.3312L25.5944 17.8036L25.2908 17.4641L25.3364 17.9364L25.1694 17.6117V17.9955L25.048 17.6707L25.0176 18.0398L24.9114 17.6855L24.8507 18.0693L24.7748 17.715L24.6989 18.0988L24.6382 17.7445L24.5472 18.1136L24.5016 17.7741L24.4106 18.1283L24.3802 17.7888L24.274 18.1283L24.2588 17.8183L24.1678 18.1431L24.1374 17.8331L24.0464 18.1578L24.016 17.8183L23.9249 18.1726L23.8946 17.8479L23.8187 18.1726L23.7884 17.8479L23.7125 18.1874L23.6821 17.8479L23.5911 18.2021L23.5607 17.8626L23.4848 18.2021L23.4545 17.8626L23.3786 18.2169L23.3482 17.8774L23.2572 18.2169L23.2268 17.8774L23.1509 18.2317L23.1206 17.8774L23.0447 18.2317L23.0144 17.8774L22.9233 18.2317L22.8929 17.8774L22.8171 18.2464L22.7867 17.8774L22.7108 18.2464L22.6805 17.8774L22.5894 18.2464L22.5591 17.8626L22.4832 18.2464L22.4376 17.8921L22.3618 18.2464L22.3314 17.8921L22.2555 18.2464L22.2252 17.8921L22.1493 18.2317L22.1189 17.8774L22.0431 18.2317L22.0127 17.8774L21.9368 18.2317L21.9065 17.8774L21.8306 18.2169L21.8002 17.8774L21.7244 18.2169L21.694 17.8626L21.6181 18.2021L21.5878 17.8626L21.5119 18.2021L21.4815 17.8626L21.4056 18.1874L21.3601 17.8479L21.2842 18.1726L21.2539 17.8479L21.178 18.1726L21.1476 17.8479L21.0718 18.1578L21.0414 17.8331L20.9655 18.1431L20.9352 17.8331L20.8593 18.1431L20.8289 17.8183L20.7531 18.1283L20.7227 17.8183L20.6468 18.1283L20.6165 17.8183L20.5406 18.1136L20.5102 17.8036L20.4344 18.0988L20.404 17.8036L20.3281 18.0988L20.2978 17.8036L20.2219 18.084L20.1764 17.8036L20.1005 18.084L20.0701 17.7888L19.9942 18.0693L19.9639 17.7888L19.888 18.0693L19.8576 17.7888L19.7818 18.0693L19.7514 17.7888L19.6755 18.0545L19.6452 17.7741L19.5693 18.0545L19.5389 17.7741L19.4631 18.0398L19.4327 17.7741L19.3568 18.0398L19.3265 17.7741L19.2506 18.0398L19.2202 17.7593L19.1444 18.025L19.114 17.7593L19.0381 18.025L18.9926 17.7593L18.9167 18.0102L18.8864 17.7445L18.8105 18.0102L18.7801 17.7445L18.7042 17.9955L18.6739 17.7445L18.598 17.9807L18.5676 17.7298L18.4918 17.966L18.4614 17.7298L18.3855 17.9512L18.3552 17.715L18.2793 17.9512L18.2489 17.715L18.1731 17.9364L18.1427 17.7003L18.0668 17.9069L18.0213 17.6707L17.9454 17.8921L17.8999 17.6707L17.824 17.8774L17.7936 17.6707L17.7178 17.8626L17.6874 17.656L17.5964 17.8479L17.566 17.6412L17.4901 17.8331L17.4598 17.6412L17.3839 17.8183L17.3384 17.6264L17.2625 17.8036L17.2321 17.6264L17.1562 17.7888L17.1107 17.6117L17.0348 17.7741L17.0045 17.6117L16.9286 17.7741L16.8982 17.6117L16.8072 17.7741L16.7768 17.6117L16.7009 17.7593L16.6706 17.5969L16.5795 17.7593L16.5492 17.5969L16.4733 17.7593L16.4429 17.5969L16.3519 17.7593L16.3215 17.5969L16.2305 17.7593L16.2001 17.5822L16.1091 17.7445L16.0787 17.5822L15.9725 17.7445L15.9573 17.5674L15.8359 17.715V17.5379L15.6993 17.6855L15.7145 17.5084L15.5779 17.6412L15.5931 17.4346L15.3654 17.5674L15.4261 17.346L15.1833 17.4198L15.2895 17.2574L15.0771 17.2722L15.1985 17.1393L15.0012 17.1246L15.1378 17.0065L14.9556 16.9622L15.0922 16.8736L14.9253 16.8146L15.0619 16.7408L14.9253 16.667L15.0467 16.6079L14.9253 16.5341L15.0467 16.4898L14.9405 16.4013L15.0467 16.357L14.9556 16.2832L15.0619 16.2389L14.986 16.1651L15.0619 16.1208L15.0012 16.047L15.0771 16.0175L15.0164 15.9437L15.0771 15.9141L15.0315 15.8403L15.0922 15.7961L15.0619 15.737L15.1074 15.6927L15.0619 15.6189L15.1074 15.5746L15.0771 15.5156L15.1074 15.4713L15.0922 15.3975L15.1226 15.368L15.0922 15.2942L15.1226 15.2647L15.1074 15.1909L15.1226 15.1613L15.1074 15.0728L15.1378 15.058L15.1226 14.9694L15.1529 14.9399L15.1378 14.8661L15.1681 14.8366L15.1529 14.748L15.1985 14.7333L15.1833 14.6447L15.2288 14.6299V14.5266H15.2895V14.4233H15.3654L15.3806 14.3199L15.4413 14.3495L15.4868 14.2314L15.5475 14.2904L15.6234 14.1723L15.6841 14.2314L15.7752 14.128L15.8207 14.1871L15.9118 14.0985L15.9573 14.1723L16.0484 14.069L16.0939 14.1576L16.1698 14.0542L16.2153 14.1428L16.2912 14.0542L16.3215 14.128L16.4126 14.0395L16.4429 14.128L16.534 14.0247L16.5644 14.1133L16.6554 14.01L16.6858 14.0985L16.7616 13.9952L16.792 14.0985L16.8831 13.9804L16.9134 14.0838L16.9893 13.9657L17.0196 14.069L17.1107 13.9361L17.1259 13.9952L17.1562 13.9214L17.1866 14.0542L17.2625 13.8919Z" fill="#007AFF"/>
<path d="M31.6147 27.8394L31.367 27.8023L31.6147 27.9877L31.3479 27.9506L31.6147 28.1545L31.3289 28.0989L31.6147 28.3028L31.3098 28.2472L31.6147 28.4696L31.2526 28.3955L31.5576 28.6179L31.1954 28.5253L31.4813 28.7662L31.1192 28.655L31.4051 28.896L31.043 28.7848L31.3098 29.0258L30.9667 28.9331L31.2145 29.1741L30.7952 29.0072L31.043 29.3965L30.6618 29.1741L30.7952 29.5819L30.5665 29.3594L30.6427 29.6746L30.4521 29.4521L30.5093 29.7302L30.3187 29.5077L30.3759 29.7858L30.1853 29.5819L30.2425 29.8414L30.071 29.6375L30.1091 29.8785L29.9376 29.6931L29.9757 29.9341L29.8232 29.7487L29.8423 29.9712L29.6898 29.8043L29.7089 30.0268L29.5564 29.8414L29.5754 30.0639L29.442 29.897V30.1009L29.3086 29.9526V30.1565L29.1943 30.0082V30.1936L29.0609 30.0639V30.2492L28.9465 30.1009L28.9274 30.2863L28.8131 30.1565L28.794 30.3419L28.6987 30.2121L28.6797 30.379L28.5653 30.2678L28.5463 30.4346L28.451 30.3048L28.4129 30.4717L28.3176 30.3604L28.2985 30.5273L28.2032 30.4161L28.1651 30.5644L28.0698 30.4717L28.0507 30.62L27.9554 30.5087L27.9173 30.657L27.822 30.5644L27.7839 30.7127L27.7077 30.62L27.6696 30.7497L27.5743 30.6756L27.5361 30.8053L27.4599 30.7127L27.4218 30.861L27.3265 30.7683L27.2884 30.898L27.2121 30.8239L27.174 30.9536L27.0787 30.8795L27.0406 31.0093L26.9644 30.9351L26.9263 31.0649L26.85 30.9907L26.7929 31.1205L26.7166 31.0463L26.6785 31.1761L26.6023 31.1019L26.5641 31.2317L26.4689 31.1576L26.4307 31.2873L26.3545 31.2132L26.3164 31.3429L26.2401 31.2688L26.202 31.4171L26.1258 31.3429L26.0877 31.4727L25.9924 31.3985L25.9543 31.5468L25.878 31.4541L25.8399 31.621L25.7637 31.5098L25.7256 31.6766L25.6493 31.5839L25.6112 31.7507L25.5159 31.6395L25.4969 31.8249L25.4016 31.7137L25.3825 31.8805L25.2872 31.7693L25.2681 31.9547L25.1729 31.8249L25.1538 32.0288L25.0394 31.899V32.0844L24.9251 31.9547L24.906 32.1586L24.8107 32.0103L24.7917 32.2142L24.6773 32.0659V32.2883L24.563 32.1215L24.5439 32.3439L24.4486 32.1771L24.4296 32.3996L24.3152 32.2327V32.4552L24.2009 32.2883L24.1818 32.5108L24.0674 32.3439L24.0484 32.5664L23.934 32.381L23.915 32.622L23.7816 32.381L23.7053 32.6776L23.61 32.4366L23.4957 32.7147L23.4385 32.4922L23.3432 32.7147L23.286 32.5108L23.1907 32.7332L23.1526 32.5108L23.0383 32.7518L23.0001 32.5293L22.9049 32.7518L22.8477 32.5293L22.7524 32.7703L22.7143 32.5479L22.5999 32.7888L22.5618 32.5479L22.4474 32.8074L22.4093 32.5479L22.295 32.8074L22.2569 32.5664L22.1425 32.8259L22.1234 32.5664L21.99 32.8444L21.9519 32.5664L21.8376 32.8444L21.8185 32.5849L21.7041 32.863L21.666 32.5849L21.5517 32.863L21.5326 32.5849L21.4183 32.863L21.3801 32.5849L21.2658 32.863L21.2467 32.5664L21.1133 32.863L21.0943 32.5664L20.9799 32.863L20.9609 32.5664L20.8274 32.863L20.8084 32.5479L20.675 32.8444V32.5293L20.5416 32.8444L20.5225 32.5293L20.3891 32.8259V32.4737L20.2176 32.7888V32.4552L20.046 32.7518L20.0651 32.4737L19.9126 32.7332L19.9317 32.4366L19.7983 32.7147V32.4181L19.6649 32.6776V32.381L19.5314 32.6405V32.3625L19.379 32.622L19.398 32.3254L19.2456 32.5849L19.2646 32.3069L19.1121 32.5479L19.1312 32.2698L18.9787 32.5293L18.9978 32.2327L18.8453 32.4922L18.8644 32.2142L18.7119 32.4552L18.731 32.1771L18.5594 32.4181L18.5785 32.14L18.426 32.381L18.4451 32.103L18.2926 32.3625L18.3117 32.0659L18.1401 32.3069L18.1783 32.0288L18.0067 32.2698L18.0449 31.9917L17.8543 32.2327L17.9114 31.9547L17.7018 32.1771L17.759 31.899L17.5684 32.1215L17.6256 31.8249L17.4159 32.0473L17.4921 31.7507L17.2444 31.9732L17.3587 31.6581L17.0729 31.862L17.2063 31.5839L16.9204 31.7322L17.0538 31.5098L16.8251 31.6395L16.9585 31.4171L16.7298 31.5468L16.8441 31.3244L16.6154 31.4541L16.7489 31.2502L16.5201 31.3615L16.6345 31.1576L16.4249 31.2688L16.5392 31.0649L16.3296 31.1761L16.4439 30.9722L16.2152 31.0834L16.3296 30.8795L16.1199 30.9907L16.2343 30.8053L16.0056 30.898L16.1199 30.7127L15.9103 30.8239L16.0056 30.62L15.7959 30.7312L15.9103 30.5458L15.7006 30.6385L15.7959 30.4531L15.5863 30.5458L15.7006 30.3604L15.491 30.4531L15.5863 30.2678L15.3957 30.3604L15.491 30.1936L15.2813 30.2678L15.3766 30.1009L15.186 30.1751L15.2813 30.0082L15.0907 30.0824L15.186 29.9156L14.9954 29.9712L15.0907 29.8043L14.9001 29.8785L14.9764 29.7116L14.8049 29.7673L14.8811 29.619L14.7096 29.656L14.7858 29.5077L14.6333 29.5448L14.6905 29.415L14.538 29.4336L14.6143 29.2853H14.4237L14.519 29.1555L14.3474 29.1184L14.4427 29.0072L14.2903 28.9701L14.3665 28.8775L14.2521 28.8219L14.3284 28.7477L14.214 28.6921L14.2712 28.5994L14.1569 28.5438L14.214 28.4696L14.1187 28.3955L14.1759 28.3399L14.0997 28.2657L14.1378 28.1916L14.0616 28.1174L14.0806 28.0618L14.0234 27.9691L14.0425 27.9135L13.9853 27.8394L14.0044 27.7838L13.9472 27.6911L13.9663 27.6355L13.9091 27.5428L13.9472 27.5057L13.89 27.413L13.9091 27.3574L13.8519 27.2647L13.871 27.2276L13.8138 27.1164L13.8519 27.0793L13.7947 26.9867L13.8329 26.9496L13.7566 26.8384L13.8138 26.8013L13.7376 26.6901L13.7947 26.653L13.7185 26.5232L13.7947 26.4861L13.7376 26.3564L13.8138 26.3193L13.7566 26.1896L13.8519 26.171L13.7947 25.9856H13.9281L13.9472 25.8373L14.0616 25.8744L14.1569 25.6334L14.2712 25.7076L14.3665 25.5593L14.4237 25.652L14.519 25.5222L14.5761 25.6149L14.6714 25.4851L14.7286 25.5964L14.843 25.4666L14.8811 25.5778L14.9954 25.4666L15.0336 25.5593L15.1289 25.4481L15.167 25.5593L15.2813 25.4481L15.3194 25.5593L15.4147 25.4295L15.4719 25.5407L15.5672 25.3924L15.6053 25.5222L15.7197 25.3739L15.7578 25.5222L15.8721 25.3554L15.9103 25.5037L16.0437 25.3368L16.0818 25.5222L16.2343 25.3183L16.2533 25.5407L16.4439 25.3368L16.4249 25.5778L16.6536 25.3924L16.5964 25.6334L16.8441 25.4666L16.7489 25.7447L17.0729 25.5964L16.9013 25.8559L17.2634 25.7817L17.0347 25.9856L17.3969 25.9671L17.1681 26.1339H17.4921L17.2634 26.2637H17.5684L17.3587 26.3935L17.6446 26.3749L17.435 26.5047L17.7018 26.4861L17.4921 26.5974L17.7399 26.5603L17.5493 26.7086L17.7971 26.653L17.6256 26.8013L17.8543 26.7457L17.6827 26.894L17.9114 26.8198L17.7399 26.9867L17.9686 26.9125L17.8161 27.0608L18.0258 26.9867L17.8733 27.1535L18.083 27.0608L17.9496 27.2276L18.1401 27.1164L18.0067 27.3389L18.2354 27.2091L18.1211 27.3945L18.3117 27.2833L18.2164 27.4872L18.407 27.3574L18.3117 27.5613L18.5023 27.413L18.407 27.6169L18.5976 27.4872L18.5213 27.6911L18.6929 27.5428L18.6357 27.7467L18.8072 27.5984L18.75 27.8023L18.9216 27.654L18.8644 27.8579L19.0359 27.6911L18.9978 27.895L19.1503 27.7281L19.1121 27.9506L19.2646 27.7652L19.2456 27.9877L19.398 27.8023L19.3599 28.0433L19.5505 27.8394L19.5124 28.0804L19.6839 27.895L19.6649 28.0618L19.7792 27.9135L19.7601 28.0989L19.8936 27.9321L19.8745 28.136L20.0079 27.9321V28.1545L20.1223 27.9506V28.173L20.2557 27.9691V28.2101L20.37 27.9877V28.2287L20.5034 28.0062V28.2472L20.6178 28.0247L20.6369 28.2657L20.7512 28.0433L20.7703 28.2843L20.8846 28.0618L20.9037 28.2843L20.999 28.0804L21.018 28.3028L21.1324 28.0989L21.1514 28.3213L21.2658 28.1174L21.2849 28.3399L21.3992 28.136L21.4183 28.3399L21.5136 28.136L21.5517 28.3584L21.647 28.1545L21.6851 28.3584L21.7804 28.1545L21.8185 28.377L21.9138 28.173L21.9519 28.377L22.0472 28.173L22.0663 28.377L22.1806 28.173L22.1997 28.377L22.295 28.1916L22.3331 28.377L22.4284 28.1916L22.4665 28.3955L22.5809 28.1916L22.619 28.3955L22.7143 28.173L22.7524 28.377L22.8477 28.173L22.8858 28.377L22.9811 28.1545L23.0192 28.377L23.1145 28.1545L23.1526 28.3584L23.2479 28.136L23.3051 28.3584L23.3813 28.1174L23.4385 28.3399L23.5147 28.1174L23.5719 28.3399L23.6481 28.0989L23.7053 28.3213L23.7816 28.0804L23.8387 28.3028L23.915 28.0618L23.9721 28.2843L24.0484 28.0433L24.1056 28.2843L24.1818 28.0247L24.239 28.2657L24.3152 28.0062L24.3914 28.2472L24.4486 27.9877L24.5249 28.2287L24.582 27.9691L24.6583 28.2101L24.7154 27.9506L24.7917 28.1916L24.8489 27.9321L24.906 28.173L24.9632 27.9135L25.0394 28.1545L25.0966 27.895L25.1729 28.1174L25.211 27.8764L25.2872 28.0989L25.3253 27.8579L25.4206 28.0618V27.8394L25.5159 28.0062V27.8208L25.6493 28.0433V27.7652L25.8018 28.0247L25.8209 27.7281L25.9352 27.9321L25.9543 27.6911L26.0686 27.895V27.6725L26.183 27.8579L26.202 27.6355L26.3164 27.8208V27.5984L26.4307 27.7838V27.5799L26.5641 27.7281L26.5451 27.5428L26.6785 27.6911L26.6594 27.4872L26.7929 27.6355L26.7738 27.4501L26.9072 27.5799L26.8881 27.3945L27.0216 27.5057L27.0025 27.3389L27.1359 27.4501L27.0978 27.2833L27.2312 27.3759L27.2121 27.2276L27.3456 27.3018L27.3074 27.135L27.4599 27.1906L27.4218 27.0423L27.5552 27.0979L27.5171 26.9496L27.6505 26.9867L27.6124 26.8384L27.7458 26.8569L27.6886 26.7271H27.803L27.7649 26.6159H27.8792L27.822 26.5047H27.9364L27.8983 26.3935H27.9936L27.9554 26.2637H28.0698L28.0317 26.1525H28.146V26.0227L28.2413 26.0413L28.2985 25.8744L28.3938 25.893L28.47 25.7261L28.5653 25.7817L28.6606 25.652L28.7369 25.7076L28.8321 25.6149L28.9084 25.6705L29.0037 25.5964L29.0609 25.652L29.1752 25.5778L29.2324 25.6334L29.3277 25.5593L29.3849 25.6334L29.4801 25.5593L29.5183 25.6149L29.6326 25.5407L29.6707 25.6149L29.766 25.5407L29.8232 25.5964L29.9185 25.5222L29.9566 25.5964L30.071 25.5222L30.1091 25.5964L30.2234 25.5222L30.2616 25.5964L30.3759 25.5037L30.414 25.6149L30.5474 25.5222L30.5665 25.6334L30.719 25.5407L30.738 25.6705L30.8905 25.5778V25.7447L31.1383 25.6705L31.043 25.8559L31.3289 25.9115L31.1954 26.0598L31.5194 26.1525L31.3098 26.2822L31.5766 26.4861L31.4051 26.5418L31.6147 26.653L31.4241 26.6901L31.6338 26.8198L31.4432 26.8569L31.6529 26.9867L31.4432 27.0052L31.6529 27.135L31.4241 27.1535L31.6338 27.3018H31.4051L31.6338 27.4501H31.386L31.6147 27.5984H31.4623L31.6147 27.6725L31.367 27.654L31.6147 27.8394Z" fill="#007AFF"/>
</g>
</g>
<defs>
<filter id="filter0_d_38_1184" x="0" y="0" width="50.4829" height="50.8945" filterUnits="userSpaceOnUse" color-interpolation-filters="sRGB">
<feFlood flood-opacity="0" result="BackgroundImageFix"/>
<feColorMatrix in="SourceAlpha" type="matrix" values="0 0 0 0 0 0 0 0 0 0 0 0 0 0 0 0 0 0 127 0" result="hardAlpha"/>
<feOffset dy="4"/>
<feGaussianBlur stdDeviation="2"/>
<feComposite in2="hardAlpha" operator="out"/>
<feColorMatrix type="matrix" values="0 0 0 0 0 0 0 0 0 0.478431 0 0 0 0 1 0 0 0 1 0"/>
<feBlend mode="normal" in2="BackgroundImageFix" result="effect1_dropShadow_38_1184"/>
<feBlend mode="normal" in="SourceGraphic" in2="effect1_dropShadow_38_1184" result="shape"/>
</filter>
<clipPath id="clip0_38_1184">
<rect width="30" height="23" fill="white" transform="translate(10.374 10.035)"/>
</clipPath>
</defs>
</svg>
