<svg width="20" height="20" viewBox="0 0 20 20" fill="none" xmlns="http://www.w3.org/2000/svg">
<path d="M5.91866 7.25379C6.40728 6.96061 7.01183 6.9374 7.52151 7.19223L11.7332 9.29809C12.7526 9.80776 13.9617 9.76133 14.9389 9.17497L17.9288 7.38105L17.0713 5.95189L14.0814 7.74582C13.5928 8.03899 12.9882 8.06221 12.4786 7.80737L8.26686 5.70152C7.24751 5.19185 6.03842 5.23828 5.06116 5.82464L2.07129 7.61856L2.92878 9.04771L5.91866 7.25379Z" fill="#4B5563"/>
<path d="M5.91866 12.2538C6.40728 11.9606 7.01183 11.9374 7.52151 12.1922L11.7332 14.2981C12.7526 14.8078 13.9617 14.7613 14.9389 14.175L17.9288 12.381L17.0713 10.9519L14.0814 12.7458C13.5928 13.039 12.9882 13.0622 12.4786 12.8074L8.26686 10.7015C7.24751 10.1918 6.03842 10.2383 5.06116 10.8246L2.07129 12.6186L2.92878 14.0477L5.91866 12.2538Z" fill="#4B5563"/>
</svg>
