<svg width="20" height="20" viewBox="0 0 20 20" fill="none" xmlns="http://www.w3.org/2000/svg">
<path fill-rule="evenodd" clip-rule="evenodd" d="M12.5 5.83331C12.5 4.4526 13.6193 3.33331 15 3.33331C16.3807 3.33331 17.5 4.4526 17.5 5.83331C17.5 7.21402 16.3807 8.33331 15 8.33331C13.6193 8.33331 12.5 7.21402 12.5 5.83331Z" fill="#63CBE8"/>
<path d="M7.29782 6.66665H2.50002V4.99998H7.29782C8.18187 4.99998 9.02972 5.35117 9.65484 5.97629L14.7559 11.0774L13.5774 12.2559L10.8334 9.51182L7.25594 13.0892L6.07743 11.9107L9.65484 8.33331L8.47633 7.1548C8.16377 6.84224 7.73985 6.66665 7.29782 6.66665Z" fill="#63CBE8"/>
<path d="M5.143 15.6903C5.0937 15.641 5.04602 15.5903 5.00002 15.5381C4.95402 15.5903 4.90635 15.641 4.85704 15.6903C4.54751 15.9999 4.18005 16.2454 3.77563 16.4129C3.37121 16.5804 2.93776 16.6666 2.50002 16.6666H1.66669V15H2.50002C2.71889 15 2.93562 14.9569 3.13783 14.8731C3.34004 14.7894 3.52377 14.6666 3.67853 14.5118C3.8333 14.3571 3.95606 14.1733 4.03982 13.9711C4.12358 13.7689 4.16669 13.5522 4.16669 13.3333H5.83335C5.83335 13.5522 5.87646 13.7689 5.96022 13.9711C6.04398 14.1733 6.16674 14.3571 6.32151 14.5118C6.47627 14.6666 6.66001 14.7894 6.86221 14.8731C7.06442 14.9569 7.28115 15 7.50002 15C7.71889 15 7.93562 14.9569 8.13783 14.8731C8.34004 14.7894 8.52377 14.6666 8.67853 14.5118C8.8333 14.3571 8.95606 14.1733 9.03982 13.9711C9.12358 13.7689 9.16669 13.5522 9.16669 13.3333H10.8334C10.8334 13.5522 10.8765 13.7689 10.9602 13.9711C11.044 14.1733 11.1667 14.3571 11.3215 14.5118C11.4763 14.6666 11.66 14.7894 11.8622 14.8731C12.0644 14.9569 12.2811 15 12.5 15C12.7189 15 12.9356 14.9569 13.1378 14.8731C13.34 14.7894 13.5238 14.6666 13.6785 14.5118C13.8333 14.3571 13.9561 14.1733 14.0398 13.9711C14.1236 13.7689 14.1667 13.5522 14.1667 13.3333H15.8334C15.8334 13.5522 15.8765 13.7689 15.9602 13.9711C16.044 14.1733 16.1667 14.3571 16.3215 14.5118C16.4763 14.6666 16.66 14.7894 16.8622 14.8731C17.0644 14.9569 17.2811 15 17.5 15H18.3334V16.6666H17.5C17.0623 16.6666 16.6288 16.5804 16.2244 16.4129C15.82 16.2454 15.4525 15.9999 15.143 15.6903C15.0937 15.641 15.046 15.5903 15 15.5381C14.954 15.5903 14.9063 15.641 14.857 15.6903C14.5475 15.9999 14.18 16.2454 13.7756 16.4129C13.3712 16.5804 12.9378 16.6666 12.5 16.6666C12.0623 16.6666 11.6288 16.5804 11.2244 16.4129C10.82 16.2454 10.4525 15.9999 10.143 15.6903C10.0937 15.641 10.046 15.5903 10 15.5381C9.95402 15.5903 9.90634 15.641 9.85704 15.6903C9.54751 15.9999 9.18005 16.2454 8.77563 16.4129C8.37121 16.5804 7.93776 16.6666 7.50002 16.6666C7.06228 16.6666 6.62883 16.5804 6.22441 16.4129C5.81999 16.2454 5.45253 15.9999 5.143 15.6903Z" fill="#63CBE8"/>
</svg>
